<svg xmlns="http://www.w3.org/2000/svg" viewBox="0 0 500 500">
    <path style="fill:#ebebeb" d="M0 382.4h500v.25H0zM416.78 398.49h33.12v.25h-33.12zM322.53 401.21h8.69v.25h-8.69zM396.59 389.21h19.19v.25h-19.19zM52.46 390.89h43.19v.25H52.46zM104.56 390.89h6.33v.25h-6.33zM131.47 395.11h93.68v.25h-93.68zM237 337.8H43.91a5.71 5.71 0 0 1-5.7-5.71V60.66a5.71 5.71 0 0 1 5.7-5.66H237a5.71 5.71 0 0 1 5.71 5.71v271.38a5.71 5.71 0 0 1-5.71 5.71ZM43.91 55.2a5.46 5.46 0 0 0-5.45 5.46v271.43a5.46 5.46 0 0 0 5.45 5.46H237a5.47 5.47 0 0 0 5.46-5.46V60.66A5.47 5.47 0 0 0 237 55.2ZM453.31 337.8h-193.1a5.72 5.72 0 0 1-5.71-5.71V60.66a5.72 5.72 0 0 1 5.71-5.66h193.1a5.71 5.71 0 0 1 5.69 5.66v271.43a5.71 5.71 0 0 1-5.69 5.71ZM260.21 55.2a5.47 5.47 0 0 0-5.46 5.46v271.43a5.47 5.47 0 0 0 5.46 5.46h193.1a5.47 5.47 0 0 0 5.46-5.46V60.66a5.47 5.47 0 0 0-5.46-5.46Z"/>
    <path style="fill:#ebebeb" d="M281.8 104.95h162.53v162.53H281.8z"/>
    <path style="fill:#f5f5f5" d="M287.77 110.79h150.7v150.7h-150.7z"/>
    <path style="fill:#fafafa" d="M334.91 110.79 294.6 261.42l-.02.07h-6.81v-48.72l27.29-101.98h19.85zM353.88 110.79l-40.31 150.63-.01.07h-10.37l.02-.07 40.3-150.63h10.37zM438.46 110.79v45.43l-28.16 105.2-.01.07h-19.85l.02-.07 40.31-150.63h7.69z"/>
    <path style="fill:#fff" d="M438.46 188.37v38.74l-9.19 34.31-.02.07h-10.37l.02-.07 19.56-73.05z"/>
    <path style="fill:#ebebeb" d="M359.39 106.96h7.34v158.51h-7.34zM400.54 106.96h3.54v158.51h-3.54zM322.04 106.96h3.54v158.51h-3.54z"/>
    <path transform="rotate(90 363.06 146.77)" style="fill:#ebebeb" d="M361.29 67.52h3.54v158.51h-3.54z"/>
    <path transform="rotate(90 363.06 186.22)" style="fill:#ebebeb" d="M361.29 106.96h3.54v158.51h-3.54z"/>
    <path transform="rotate(90 363.06 225.66)" style="fill:#ebebeb" d="M361.29 146.41h3.54v158.51h-3.54z"/>
    <path transform="rotate(-110.11 192.302 201.42)" style="fill:#ebebeb" d="M177.47 180.42h29.68v42h-29.68z"/>
    <path transform="rotate(-110.11 192.302 201.42)" style="fill:#f5f5f5" d="M179.41 182.39h25.81v38.05h-25.81z"/>
    <path transform="rotate(-90 170.27 144.32)" style="fill:#ebebeb" d="M155.43 123.32h29.68v42h-29.68z"/>
    <path transform="rotate(-90 170.27 144.32)" style="fill:#f5f5f5" d="M157.37 125.3h25.81v38.05h-25.81z"/>
    <path transform="rotate(180 118.245 119.935)" style="fill:#ebebeb" d="M103.4 98.93h29.68v42H103.4z"/>
    <path transform="rotate(180 118.245 119.935)" style="fill:#f5f5f5" d="M105.34 100.91h25.81v38.05h-25.81z"/>
    <path transform="rotate(106.14 99.854 174.891)" style="fill:#ebebeb" d="M88.23 158.45h23.24v32.89H88.23z"/>
    <path transform="rotate(106.14 99.854 174.891)" style="fill:#f5f5f5" d="M89.75 160h20.21v29.8H89.75z"/>
    <ellipse cx="250" cy="419.6" rx="193.89" ry="18.27" style="fill:#f5f5f5"/>
    <path d="M188.08 310.26H172.3a12.53 12.53 0 0 0-12.52 12.53v84h40.83v-84a12.53 12.53 0 0 0-12.53-12.53Z" style="fill:#37a05f"/>
    <path d="M333.53 295.9H221.69a21.07 21.07 0 0 0-21.08 21.1v45h154v-45a21.07 21.07 0 0 0-21.08-21.1Z" style="fill:#37a05f"/>
    <path d="M354.61 317v45h-154v-45a21.09 21.09 0 0 1 21.09-21.08h111.83A21.09 21.09 0 0 1 354.61 317Z" style="fill:#fff;isolation:isolate;opacity:.7000000000000001"/>
    <path d="M354.61 317v45h-154v-42.36c1.76 7.13 6.75 16.48 20.54 20.59 23.77 7.07 62-.15 62-.15s-23.57 1.24-31.14-3.46 8.82.25 36.33-5.8c25.89-5.7 46.49-28.9 60.39-28.49a21 21 0 0 1 5.88 14.67Z" style="isolation:isolate;opacity:.05"/>
    <path transform="rotate(180 264.2 387.705)" style="fill:#37a05f" d="M188.21 368.65h151.98v38.1H188.21z"/>
    <path style="fill:#fff;isolation:isolate;opacity:.7000000000000001" d="M188.21 368.65h151.98v38.11H188.21z"/>
    <path transform="rotate(180 264.2 375.41)" style="opacity:.1" d="M188.21 368.65h151.98v13.51H188.21z"/>
    <path d="M346.91 362.39v5.35a11.81 11.81 0 0 1-.24 2.39 12.72 12.72 0 0 1-12.5 10.34H189a12.73 12.73 0 0 1-12.73-12.73v-5.4a9 9 0 0 1 3.3-6.79c6.13-5.17 4.85-5.12 12.75-5.12 8.76 0 24 2.54 35.37 2.42s20.31-2.42 37.67-2.42 20.44 2.17 30.6 2.42 11.77-2.41 25-3.19h4c10.75.66 19.2 6.34 21.57 9.73 0 .2.09.39.12.58a12 12 0 0 1 .26 2.42Z" style="fill:#37a05f"/>
    <path d="M346.91 362.39v5.35a11.81 11.81 0 0 1-.24 2.39 12.72 12.72 0 0 1-12.5 10.34H189a12.73 12.73 0 0 1-12.73-12.73v-5.4a9 9 0 0 1 3.3-6.79c6.13-5.17 4.85-5.12 12.75-5.12 8.76 0 24 2.54 35.37 2.42s20.31-2.42 37.67-2.42 20.44 2.17 30.6 2.42 11.77-2.41 25-3.19h4c10.75.66 19.2 6.34 21.57 9.73 0 .2.09.39.12.58a12 12 0 0 1 .26 2.42Z" style="fill:#fff;isolation:isolate;opacity:.7000000000000001"/>
    <path d="M346.69 360.71V370.13c-.27 5.77-3.83 10.34-8.2 10.34h-13.15c-4.54 0-8.22-5-8.22-11.05v-8.71c0-5.91 3.46-10.74 7.8-11h.08c10.75.66 19.2 6.34 21.57 9.73l.1.15v.43c0 .14.02.45.02.69Z" style="isolation:isolate;opacity:.1"/>
    <path d="M324.82 349.66ZM325.34 349.66Z" style="fill:#fff"/>
    <path d="M358.1 310.26h-15.77a12.53 12.53 0 0 0-12.53 12.53v84h40.83v-84a12.53 12.53 0 0 0-12.53-12.53Z" style="fill:#37a05f"/>
    <path d="M358.1 310.26h-15.77a12.53 12.53 0 0 0-12.53 12.53v84h40.83v-84a12.53 12.53 0 0 0-12.53-12.53Z" style="fill:#fff;isolation:isolate;opacity:.7000000000000001"/>
    <path d="M341.54 310.26A11.75 11.75 0 0 0 329.8 322v84.75h23.49V322a11.75 11.75 0 0 0-11.75-11.74Z" style="fill:#fff;isolation:isolate;opacity:.2"/>
    <path d="m156 411.65-40.57-1a3.88 3.88 0 0 1-3.87-5l9.95-38.83a6.7 6.7 0 0 1 6.38-4.78l40.57 1a3.88 3.88 0 0 1 3.87 5l-9.95 38.83a6.7 6.7 0 0 1-6.38 4.78Z" style="fill:#37a05f"/>
    <path d="m172.28 368-9.95 38.84a6.69 6.69 0 0 1-6.37 4.78l-40.57-1a3.87 3.87 0 0 1-3.93-4.83c0-.07 0-.13.05-.19l9.95-38.84a6.7 6.7 0 0 1 6.38-4.77l40.58 1a4.38 4.38 0 0 1 2.36.71 3.82 3.82 0 0 1 1.5 4.3Z" style="fill:#fff;isolation:isolate;opacity:.30000000000000004"/>
    <path d="m172.28 368-9.95 38.84a6.69 6.69 0 0 1-6.37 4.78l-40.57-1a3.87 3.87 0 0 1-3.93-4.83c10.21 8.79 42.75-18.62 41.25-13.91-1.64 5.2-20.89 11.88-13.72 13.05s17-6.15 20.28-11.64c8.06-13.55 3.5-17.31 7.16-23.92 1-1.93 4.14-3.73 4.35-5.67a3.82 3.82 0 0 1 1.5 4.3Z" style="isolation:isolate;opacity:.1"/>
    <path d="M274.9 414.42h66.64c4.47 0 8.67-3.26 8.67-3.26a24.5 24.5 0 0 1-5.69-8.08c-1.73-4.52-18.83-6-28.74-2.92S303.42 395 288.67 396s-18.34 11.85-20.39 13.07 1.41 5.35 6.62 5.35Z" style="fill:#37a05f"/>
    <path d="M350.21 411.16s-.17.14-.48.35c-1.22.84-4.62 2.91-8.19 2.91h-66.65c-4 0-6.91-2.38-7.19-4a1.19 1.19 0 0 1 .58-1.28c2-1.21 5.63-12 20.38-13.07a29.17 29.17 0 0 1 14.59 2.52c3.61 1.49 6.51 2.91 10.83 2a16.46 16.46 0 0 0 1.71-.43c9.9-3.12 27-1.6 28.74 2.92a24.39 24.39 0 0 0 5.68 8.08Z" style="fill:#fff;isolation:isolate;opacity:.30000000000000004"/>
    <path d="M291.26 403c.49-1 7.08 2.07 11.14-.55 3.31-2.14.58-1.1.85-3.92 3.61 1.49 6.51 2.91 10.83 2 .63.68 2.34 1.38 5.92 2.43 8.42 2.47-8.43 3.11-16.23 2.36S290.76 404 291.26 403ZM349.73 411.51c-1.22.84-4.62 2.91-8.19 2.91h-66.65c-4 0-6.91-2.38-7.19-4 1.35.78 3.91 1.8 8.45 2.3 7.92.87 21.92-1.74 31.71-.56s26.62 2.16 31.58.74a48.7 48.7 0 0 1 10.29-1.39Z" style="isolation:isolate;opacity:.1"/>
    <path d="M330.48 227.92c-3.22-4.75-6.57-9.52-7.45-15.37a45.77 45.77 0 0 1 .4-6.84c.31-2.5.68-5 1.22-7.42a1.55 1.55 0 0 1 3.06.21c.3 3.55.45 7.43.66 11a11.33 11.33 0 0 0 1.61 5.87 98.5 98.5 0 0 0 5.57 9 3.1 3.1 0 0 1-5.07 3.55Z" style="fill:#ffb573"/>
    <path d="M331.67 234.26a53.21 53.21 0 0 1-5.76-9.59l6.59-6.43a17.94 17.94 0 0 0 5.6 5.45Z" style="fill:#37a05f"/>
    <path d="m327.72 198.82.38-5.15-4.5.39s-.77 3.57 1.74 5.23Z" style="fill:#ebb376"/>
    <path style="fill:#ebb376" d="m326.62 190.31-3.29 1.09.27 2.66 4.5-.39-1.48-3.36z"/>
    <path d="m338.09 223.69-6.42 10.57s-.2-.25-.54-.72-1.14-1.62-1.95-2.88a48.35 48.35 0 0 1-3.27-6l6.59-6.43a18 18 0 0 0 5.59 5.46Z" style="fill:#fff;isolation:isolate;opacity:.5"/>
    <path d="M331.13 233.54c-.45-.61-1.14-1.62-1.95-2.88a8.86 8.86 0 0 1 3.84-3.15 12.67 12.67 0 0 1-1.89 6.03Z" style="isolation:isolate;opacity:.2"/>
    <path d="M319.53 249.9S305 263 303.44 267.77s9.79 21.72 9.79 21.72l4.28-1.49s-6-16.16-6.37-17 12.95-12.47 12.95-12.47Z" style="fill:#ebb376"/>
    <path d="m312.46 287.3 4.45.21a.35.35 0 0 1 .43.21l1.44 3.94a.84.84 0 0 1-.55 1c-1.77.49-2.65.64-4.88 1.29a43.38 43.38 0 0 1-6 1.6c-2 .26-2.17-1.69-1.36-2a12.66 12.66 0 0 0 5.31-3.65c.51-.9.88-2.52 1.16-2.6ZM331.18 265.35S325.43 284 326.6 289s19.58 13.58 19.58 13.58l2.9-3.49s-13.45-10.77-14.24-11.32 4.68-17.35 4.68-17.35Z" style="fill:#ebb376"/>
    <path d="m344.39 301 3.92-2.11a.33.33 0 0 1 .47 0l3.26 2.63a.83.83 0 0 1 .07 1.17c-1.27 1.34-1.94 1.92-3.52 3.63a45 45 0 0 1-4.32 4.46c-1.54 1.23-2.72-.33-2.17-1a12.62 12.62 0 0 0 2.67-5.87c-.07-1.08-.58-2.66-.38-2.91Z" style="fill:#ebb376"/>
    <path d="M321 244.93c1.76-2.68 11.26-12.69 12.41-23.59a80.9 80.9 0 0 0 8.7 4.08c8.16 3.14 11.12 3.42 11.12 3.42s-2.4 14.94-8.35 27.78a.64.64 0 0 1-.85.3l-22.78-11.08a.63.63 0 0 1-.25-.91Z" style="fill:#37a05f"/>
    <path d="M344.86 256.62a.61.61 0 0 1-.84.3l-22.78-11.09a.6.6 0 0 1-.25-.89c1.76-2.69 11.27-12.7 12.41-23.6a83.14 83.14 0 0 0 8.7 4.08c8.16 3.14 11.12 3.42 11.12 3.42s-.36 2.23-1.14 5.71c-.36 1.58-.81 3.44-1.35 5.46a105.4 105.4 0 0 1-5.87 16.61Z" style="fill:#fff;isolation:isolate;opacity:.5"/>
    <path d="M321 245.35c-4 1.16-13.44 9.31-18.15 17.41 0 0 2.89 3.94 17.52 10.09a97.72 97.72 0 0 0 21.27 6.48c.82-8.2 4.53-23.06 3.51-24.18Z" style="fill:#37a05f"/>
    <path d="M341.64 279.33s-1.31-.2-3.63-.73c-1.09-.25-2.42-.57-3.94-1-1.36-.37-2.88-.82-4.52-1.36-1.14-.36-2.33-.77-3.57-1.21-1.77-.64-3.65-1.37-5.61-2.19l-1.53-.66c-.92-.4-1.8-.79-2.62-1.17-2-.92-3.73-1.78-5.19-2.57a55.37 55.37 0 0 1-3-1.73 36.11 36.11 0 0 1-3-2c-.41-.31-.74-.58-1-.82a7.56 7.56 0 0 1-1.16-1.13c4.71-8.09 14.12-16.24 18.14-17.39l24.15 9.79c1.01 1.12-2.7 15.97-3.52 24.17Z" style="isolation:isolate;opacity:.2"/>
    <path d="M313.72 253.57 305 264.7c-.41-.31-.74-.58-1-.82ZM308 266.72l14.24-15.08L311 268.45c-1.12-.62-2.12-1.2-3-1.73ZM316.22 271l11.71-17.08-9.09 18.25c-.92-.38-1.84-.77-2.62-1.17ZM326 275l9.18-18.41-5.61 19.62c-1.16-.32-2.35-.73-3.57-1.21ZM338 278.6c-1.09-.25-2.42-.57-3.94-1l6.56-18.73Z" style="isolation:isolate;opacity:.2"/>
    <path transform="rotate(46.18 327.423 178.06)" style="fill:#37a05f" d="M323.48 174.91h7.93v6.35h-7.93z"/>
    <path transform="rotate(46.18 327.423 178.06)" d="M323.48 174.91h7.93v6.35h-7.93z" style="opacity:.2"/>
    <path transform="rotate(46.18 336.005 164.283)" style="fill:#37a05f" d="M334.94 163.21h2.2v2.2h-2.2z"/>
    <path transform="rotate(46.18 336.005 164.283)" d="M334.94 163.21h2.2v2.2h-2.2z" style="opacity:.2"/>
    <path transform="rotate(46.18 338.767 167.152)" style="fill:#37a05f" d="M337.7 166.09h2.2v2.2h-2.2z"/>
    <path transform="rotate(46.18 338.767 167.152)" d="M337.7 166.09h2.2v2.2h-2.2z" style="opacity:.2"/>
    <path transform="rotate(46.18 341.54 170.045)" style="fill:#37a05f" d="M340.46 168.96h2.2v2.2h-2.2z"/>
    <path transform="rotate(46.18 341.54 170.045)" d="M340.46 168.96h2.2v2.2h-2.2z" style="opacity:.2"/>
    <path transform="rotate(46.18 327.632 199.647)" style="fill:#37a05f" d="M325.03 185.87h5.24v27.6h-5.24z"/>
    <path d="m316.18 215 .06-2.64a1.75 1.75 0 1 0-1.72-1.79l-2.64-.05a4.39 4.39 0 1 1 4.3 4.48Z" style="fill:#37a05f"/>
    <path transform="rotate(-133.82 305.888 176.978)" style="fill:#37a05f" d="M303.26 163.19h5.24v27.6h-5.24z"/>
    <path d="m294.41 192.29.06-2.63a1.75 1.75 0 1 0-1.72-1.79l-2.64-.05a4.39 4.39 0 1 1 4.3 4.47Z" style="fill:#37a05f"/>
    <path transform="rotate(46.18 320.302 184.893)" style="fill:#37a05f" d="M309.53 176.04h21.57v17.75h-21.57z"/>
    <path transform="rotate(46.18 324.688 180.68)" style="fill:#37a05f" d="M306.36 177.91h36.68v5.6h-36.68z"/>
    <rect x="325.43" y="165.49" width="15.7" height="13.98" rx="2.75" transform="rotate(46.18 333.265 172.45)" style="fill:#37a05f"/>
    <path transform="rotate(46.18 316.032 188.986)" style="opacity:.2" d="M305.27 186.05h21.57v5.92h-21.57z"/>
    <path transform="rotate(46.18 329.662 185.878)" style="opacity:.2" d="M318.53 183.1h22.3v5.6h-22.3z"/>
    <path transform="rotate(46.18 319.799 195.058)" style="fill:#fff;opacity:.2" d="M316.02 193.6h7.6v2.96h-7.6z"/>
    <path transform="rotate(46.18 325.58 179.718)" style="fill:#fff;opacity:.2" d="M321.72 178.26h7.76v2.96h-7.76z"/>
    <path transform="rotate(46.18 318.51 176.398)" style="fill:#fff;opacity:.2" d="M315.12 174.93h6.81v2.96h-6.81z"/>
    <path transform="rotate(46.18 319.175 185.858)" style="fill:#fff;opacity:.2" d="M315.31 184.4h7.77v2.96h-7.77z"/>
    <path transform="rotate(46.18 315.61 169.208)" style="opacity:.2" d="M311.85 167.84h7.56v2.8h-7.56z"/>
    <path transform="rotate(46.18 332.955 189.311)" style="fill:#fff;opacity:.2" d="M331.81 186.53h2.32v5.6h-2.32z"/>
    <path transform="rotate(46.18 307.398 175.495)" style="opacity:.2" d="M304.79 169.44h5.24v12.16h-5.24z"/>
    <path transform="rotate(46.18 304.08 178.67)" style="fill:#fff;opacity:.2" d="M301.48 177.22h5.24v2.96h-5.24z"/>
    <path transform="rotate(46.18 298.185 184.315)" style="fill:#fff;opacity:.2" d="M295.59 182.87h5.24v2.96h-5.24z"/>
    <path transform="rotate(46.18 332.479 194.989)" style="fill:#fff;opacity:.2" d="M329.88 193.53h5.24v2.96h-5.24z"/>
    <path transform="rotate(46.18 319.964 207.018)" style="opacity:.2" d="M317.36 205.55h5.24v2.96h-5.24z"/>
    <path d="M348.19 228.63s-4.36 1.52-6.56.35a4 4 0 0 1-2-3.69 2.28 2.28 0 0 0 2.38-1.34 16.17 16.17 0 0 0 1.71-4.14l5.2 4.44c-.2.36-.38.71-.54 1-1.51 3.11-.19 3.38-.19 3.38Z" style="fill:#ebb376"/>
    <path d="M349 224.25c-.2.36-.38.71-.54 1-1.45.6-3.6.67-6.37-1.32a16.17 16.17 0 0 0 1.71-4.14Z" style="isolation:isolate;opacity:.2"/>
    <path d="M352.92 202.85c-4.78-2.64-7.36-.2-8.49 2.85s-2 2-4.87 1.6-1.71 2-2.12 3.81-3.69-1.43-4.06 2.59c0 0 2.16-.13 2.59 1.34a6.32 6.32 0 0 0 6 4.85c4.23.24 5.45 3.13 5.45 3.13s10.58-17.39 5.5-20.17Z" style="fill:#263238"/>
    <path d="M353.52 203.62s-8.66-.21-6.94 9.16c1.95 10.59 6.94-9.16 6.94-9.16Z" style="fill:#263238"/>
    <path d="M359.82 221.13c-3.66 3.66-9.11 5.33-13.46 3.34-7.26-3.32-8.09-6.7-4.93-11.67 2.82-4.5 9.66-9.56 15.57-6.46s7.9 9.71 2.82 14.79Z" style="fill:#ebb376"/>
    <path d="M349.93 214.53c-.45.48-1.07.64-1.38.34s-.2-.92.25-1.4 1.06-.63 1.38-.34.2.92-.25 1.4ZM346.27 210.75c-.43.46-1 .61-1.32.32s-.19-.88.24-1.34 1-.6 1.32-.32.19.88-.24 1.34ZM350.36 211.87a.33.33 0 0 1-.12-.14.31.31 0 0 1 .21-.37 2.92 2.92 0 0 1 2.66.46.29.29 0 0 1 0 .41.3.3 0 0 1-.41 0 2.32 2.32 0 0 0-2.13-.32.31.31 0 0 1-.21-.04ZM346.67 206.47a.36.36 0 0 1 .07-.18.31.31 0 0 1 .42 0 2.9 2.9 0 0 1 .92 2.53.29.29 0 0 1-.34.24.32.32 0 0 1-.24-.35 2.28 2.28 0 0 0-.78-2 .34.34 0 0 1-.05-.24Z" style="fill:#263238"/>
    <path d="m346.5 212-1.4 2.5a3.47 3.47 0 0 1-1.45-1.51 8.18 8.18 0 0 0 2.85-.99Z" style="fill:#d58745"/>
    <path d="M344.09 215.53a20.88 20.88 0 0 1-.47 3.06l.51.2c2.3.91 3.66.57 4.48-.08a3.16 3.16 0 0 0 .9-1.21 3 3 0 0 0 .25-.83 11.66 11.66 0 0 1-4.88-.84c-.49-.17-.79-.3-.79-.3Z" style="fill:#263238"/>
    <path d="m344.88 215.83-.11.9c2.16.85 3.8 1.16 4.74.77a3 3 0 0 0 .25-.83 11.66 11.66 0 0 1-4.88-.84Z" style="fill:#fff"/>
    <path d="M344.13 218.79c2.3.91 3.66.57 4.48-.08a7.78 7.78 0 0 0-2.75-.5 3 3 0 0 0-1.73.58Z" style="fill:#de5753"/>
    <path d="M353.37 219.69s3.14-1.45 3.69.38-3.23 5.57-5 3.94-.65-3.79 1.31-4.32Z" style="fill:#ebb376"/>
    <path d="M363.67 224.24c.38-1.3-1.83-2.24-.89-4.47 1.12-2.66 3.26-3 2.38-7.11-.7-3.36-2-2.39-3.48-5.31a15.89 15.89 0 0 0-4.32-4.72c-4.29-3.57-7.31-.52-6.68 3.08a2.93 2.93 0 0 1 2.37 1.9c.67 1.93-.58 3.89.95 6.18s1.33 4.48.08 5.32c-1.08.73-1.6 1.41-1.68 3.84-.08 2.6-2.26 2.33-2.33 4.52 0 0 4.52.65 5.5 2a5.39 5.39 0 0 0 5.62 2 7.42 7.42 0 0 0 3.66-2.43s-2.34-.75-1.18-4.8Z" style="fill:#263238"/>
    <path d="M350.73 240c-1.82-2.28-1.1-6.82-1.1-6.82a5.61 5.61 0 0 1 2.45 1.36c-.36 1.59-.81 3.46-1.35 5.46Z" style="isolation:isolate;opacity:.2"/>
    <path d="M353.58 229.9a60.84 60.84 0 0 1 8.14 1.44c3.07.83 5.58 1.42 8.42 3.5 4.15 3.71 2.74 12.8 2 17.7a1.55 1.55 0 0 1-3.06-.17 61.87 61.87 0 0 0-1.47-11.25 7.08 7.08 0 0 0-.53-1.41c-.18-.38-.41-.57-.31-.44-4.05-2-9.43-2.47-13.92-3.22a3.1 3.1 0 0 1 .77-6.15Z" style="fill:#ffb573"/>
    <path d="M349.31 227.91s6.35 1.65 11.25 2.53l-1.14 8.23a77.91 77.91 0 0 1-8.31-.16c-4.52-.51-1.8-10.6-1.8-10.6Z" style="fill:#37a05f"/>
    <path d="m371.8 250.25 1.41 5-4.49.53s-1.47-3.34.65-5.47Z" style="fill:#ebb376"/>
    <path style="fill:#ebb376" d="m372.44 258.82-3.44-.41-.27-2.66 4.48-.53-.77 3.6z"/>
    <path d="M349.31 227.91s6.35 1.65 11.25 2.53l-1.14 8.23a77.91 77.91 0 0 1-8.31-.16c-4.52-.51-1.8-10.6-1.8-10.6Z" style="fill:#fff;isolation:isolate;opacity:.5"/>
    <path d="M396.59 387s-2.43-11-12.82-15.86-13.06-5.8-11.57-9.52 8.86 3.45 8.86 3.45a22.87 22.87 0 0 0-8.22-11.73c-6.31-4.4-14.69-13-12.86-16s9.45 11.5 15 14.19a47.5 47.5 0 0 0-5-11.25c-3.23-4.93-9.38-12.05-8.77-15.52s2.92-3.14 8.72 8.74a134.87 134.87 0 0 0 12.16 20.28s-5.8-16.94-3.1-19.6 6 1.75 6.32 7.5.55 16.31 2.39 20.43c0 0-2.82-13.91 3.94-14.1s3.2 12.2 1.22 17.2 6 20.9 6 20.9Z" style="fill:#37a05f"/>
    <path d="M396.59 387s-2.43-11-12.82-15.86-13.06-5.8-11.57-9.52 8.86 3.45 8.86 3.45a22.87 22.87 0 0 0-8.22-11.73c-6.31-4.4-14.69-13-12.86-16s9.45 11.5 15 14.19a47.5 47.5 0 0 0-5-11.25c-3.23-4.93-9.38-12.05-8.77-15.52s2.92-3.14 8.72 8.74a134.87 134.87 0 0 0 12.16 20.28s-5.8-16.94-3.1-19.6 6 1.75 6.32 7.5.55 16.31 2.39 20.43c0 0-2.82-13.91 3.94-14.1s3.2 12.2 1.22 17.2 6 20.9 6 20.9Z" style="isolation:isolate;opacity:.2"/>
    <path d="M402.09 388.08s-9.88-5.49-11.55-16.81-1.81-14.15-5.81-13.8.77 9.47.77 9.47a22.84 22.84 0 0 1-8.89-11.23c-2.42-7.3-8.28-17.78-11.66-16.89s8.31 12.34 9.29 18.44a47.53 47.53 0 0 1-9.34-8c-3.8-4.51-8.88-12.43-12.38-12.85s-3.84 1.9 5.89 10.85a135.77 135.77 0 0 1 16 17.46s-14.59-10.41-17.91-8.6 0 6.25 5.38 8.21 15.49 5.2 18.92 8.15c0 0-12.54-6.7-14.66-.28s10.79 6.55 16.15 6.09S400.58 390 400.58 390Z" style="fill:#37a05f"/>
    <path style="fill:#263238" d="m380.79 394.93 30.2-22.8 13.86 23.46-25.3 19.1-18.76-19.76z"/>
    <path d="M227.05 376.3c4.95-.38 10.29-.48 15-2a37.33 37.33 0 0 0 4.13-2.45c2-1.3 4.06-2.66 6.16-3.94a1.72 1.72 0 0 1 2.25 2.51c-2.87 3.55-5.91 7.17-9.89 9.54-5.63 2.53-11.49 2.9-17.48 3.18a3.41 3.41 0 0 1-.2-6.82Z" style="fill:#ffb573"/>
    <path d="M222.27 379.89c.21 2.88 3.82 7.11 17.16 2.93l-.13-8.22s-7.22.67-10.19.78a7.93 7.93 0 0 0-6.84 4.51Z" style="fill:#263238"/>
    <path d="m252.08 368.09 4.26-3.78 2.66 4.21s-2.61 3.06-5.74 2Z" style="fill:#ebb376"/>
    <path style="fill:#ebb376" d="m260.28 363.37 1.23 3.61-2.51 1.54-2.66-4.21 3.94-.94z"/>
    <path d="m236.89 409.88-30.47 1.87c-.48-3.75-.75-7.55-.87-11.17-.1-2.71-.11-5.32-.07-7.72v-1.59c.08-3.72.27-6.85.43-8.94a4.49 4.49 0 0 1 3.19-4 40.1 40.1 0 0 1 10.54-1.53c3.58-.11 6.54-1.78 8.45-1.33 2.31.56 3.62 4.66 3.61 7-.05 9.96 5.19 27.41 5.19 27.41Z" style="fill:#263238"/>
    <path d="M221.27 374.87a4.19 4.19 0 0 0 .3 3.23c.1.17.2.34.31.5a6.29 6.29 0 0 0 .6.71 5.22 5.22 0 0 1-6 1.29l-3.42-1.51-.74-.34a7.8 7.8 0 0 0 1.48-6.21 10.49 10.49 0 0 0-1.09-3.17l6.88 2 3.12.92a7 7 0 0 0-1.44 2.58Z" style="fill:#ebb376"/>
    <path d="M221.27 374.87a4.19 4.19 0 0 0 .3 3.23c.1.17.2.34.31.5-3.83-.41-6.64-3.85-8.07-6.06a10.49 10.49 0 0 0-1.09-3.17l6.88 2 3.12.92a7 7 0 0 0-1.45 2.58Z" style="isolation:isolate;opacity:.2"/>
    <path d="M218.33 351.4s8.74 3.6 2.9 12.2c-6.6 9.72-2.9-12.2-2.9-12.2Z" style="fill:#263238"/>
    <path d="M204.33 366.12c2 5.27 6.92 10.3 11.64 9.73 8.65-1 11.37-3.6 10.4-10-.84-5.73-5.45-13.79-12.71-13.31s-12.16 6.27-9.33 13.58Z" style="fill:#ebb376"/>
    <path d="M213.75 360.52a.45.45 0 0 0 0 .2.34.34 0 0 0 .4.23 3.19 3.19 0 0 0 2.24-1.92.33.33 0 0 0-.2-.41.34.34 0 0 0-.41.21 2.57 2.57 0 0 1-1.82 1.49.31.31 0 0 0-.21.2ZM219.83 357.11a.32.32 0 0 0-.14.14.33.33 0 0 0 .21.41 3.16 3.16 0 0 0 2.92-.35.32.32 0 0 0 .06-.45.34.34 0 0 0-.45-.05 2.56 2.56 0 0 1-2.34.23.35.35 0 0 0-.26.07Z" style="fill:#263238"/>
    <path d="m220.62 361.32.87 2.66a4.34 4.34 0 0 0 1.82-1.39 7.52 7.52 0 0 1-2.69-1.27Z" style="fill:#d58745"/>
    <path d="M223.25 370.18a11 11 0 0 1-2.87 1.36 4.52 4.52 0 0 1-3.89-.3 2 2 0 0 1-.61-.69 3.87 3.87 0 0 1 .11-4 2.32 2.32 0 0 1 1-.75 11.5 11.5 0 0 1 5-.62 2.16 2.16 0 0 1 .79.13 8 8 0 0 0 .47 4.87Z" style="fill:#263238"/>
    <path d="M221.94 369.51c-.18.45-1.41 1.15-1.56 2a4.52 4.52 0 0 1-3.89-.3 2 2 0 0 1-.61-.69 4.94 4.94 0 0 1 2.69-1.83c2.49-.69 3.6.2 3.37.82Z" style="fill:#de5753"/>
    <path d="M222 365.18v.62a19.15 19.15 0 0 0-6 .75 2.32 2.32 0 0 1 1-.75 11.5 11.5 0 0 1 5-.62Z" style="fill:#fff"/>
    <path d="M220.79 350.89c-1.11-.32-.87-3.09-4.58-3.16s-5.69 2.38-7.14 3.16c-.86.47-3.75-.29-6.55 1.67s-4.5 5-2.8 8-.47 3.88.82 7.13 3.92 3 3.92 3c3.24 4.25 6.26 3.71 6.26 3.71-1.34-4.94 2.33-8.27.48-11.74s1.26-5 1.26-5a15.85 15.85 0 0 0 7.7-2.84c.1 1.14-1.32 1.92-1.32 1.92s3.71-1.55 4.12-3.07-1.06-2.46-2.17-2.78Z" style="fill:#263238"/>
    <path d="M211.41 367.52s-2.49-2.83-3.85-1.24.77 7 3.3 6.15 2.27-3.52.55-4.91Z" style="fill:#ebb376"/>
    <path d="M215.56 362.54a4.43 4.43 0 0 0-2.84 2.14c-.56 1.16 1-.58 1-.58s-1.42 3-1.06 4 .68-1.54.68-1.54-.06 4 .38 4.45-.62-5.83 1.85-8.15ZM223.4 359.78a4.39 4.39 0 0 1 3.49.63c1 .79-1.14-.07-1.14-.07s2.61 2.05 2.74 3.1-1.3-1.08-1.3-1.08 1.84 3.55 1.65 4.15-2.06-5.49-5.31-6.46Z" style="fill:#37a05f"/>
    <path d="M215.56 362.54a4.43 4.43 0 0 0-2.84 2.14c-.56 1.16 1-.58 1-.58s-1.42 3-1.06 4 .68-1.54.68-1.54-.06 4 .38 4.45-.62-5.83 1.85-8.15ZM223.4 359.78a4.39 4.39 0 0 1 3.49.63c1 .79-1.14-.07-1.14-.07s2.61 2.05 2.74 3.1-1.3-1.08-1.3-1.08 1.84 3.55 1.65 4.15-2.06-5.49-5.31-6.46Z" style="fill:#fff;opacity:.7000000000000001"/>
    <path d="M215.56 362.81a.15.15 0 0 1-.11 0 .17.17 0 0 1 0-.23 1.75 1.75 0 0 1 2.16-.62.16.16 0 0 1-.15.28 1.43 1.43 0 0 0-1.77.55.16.16 0 0 1-.13.02ZM222 360.73h-.06a.15.15 0 0 1-.08-.21 1.57 1.57 0 0 1 .81-.83 1.09 1.09 0 0 1 .93.14.16.16 0 0 1 .06.22.16.16 0 0 1-.22.06.8.8 0 0 0-.67-.11 1.26 1.26 0 0 0-.62.64.15.15 0 0 1-.15.09ZM225.55 365h-.22a.19.19 0 0 1-.16-.22.2.2 0 0 1 .23-.16.86.86 0 0 0 .88-.4 1.22 1.22 0 0 1 1.28-.58.87.87 0 0 0 .89-.4 1.21 1.21 0 0 1 1.28-.58.86.86 0 0 0 .88-.4 1.22 1.22 0 0 1 1.29-.58.86.86 0 0 0 .88-.41 1.26 1.26 0 0 1 1.28-.58.86.86 0 0 0 .89-.4.18.18 0 0 1 .26-.06.18.18 0 0 1 .07.26 1.19 1.19 0 0 1-1.28.51.88.88 0 0 0-.89.41 1.26 1.26 0 0 1-1.28.58.84.84 0 0 0-.88.4 1.27 1.27 0 0 1-1.29.58.84.84 0 0 0-.88.4 1.22 1.22 0 0 1-1.28.58.86.86 0 0 0-.89.4 1.23 1.23 0 0 1-1.06.65ZM226.41 367.08a1.19 1.19 0 0 1-.49-.1.19.19 0 0 1 .15-.35.86.86 0 0 0 1-.2 1.23 1.23 0 0 1 1.38-.27.83.83 0 0 0 .93-.19 1.25 1.25 0 0 1 1.38-.28.88.88 0 0 0 1-.19 1.24 1.24 0 0 1 1.38-.28.86.86 0 0 0 1-.19 1.25 1.25 0 0 1 1.38-.28.84.84 0 0 0 .95-.19.18.18 0 0 1 .27 0 .19.19 0 0 1 0 .27 1.25 1.25 0 0 1-1.38.28.86.86 0 0 0-.95.19 1.25 1.25 0 0 1-1.38.28.86.86 0 0 0-1 .19 1.28 1.28 0 0 1-1.38.28.85.85 0 0 0-1 .19 1.24 1.24 0 0 1-1.38.27.86.86 0 0 0-.94.19 1.23 1.23 0 0 1-.92.38ZM236.14 370a1.19 1.19 0 0 1-.76-.26.84.84 0 0 0-1-.05 1.27 1.27 0 0 1-1.41-.08.86.86 0 0 0-1-.06 1.22 1.22 0 0 1-1.4-.08.84.84 0 0 0-1-.05 1.27 1.27 0 0 1-1.41-.08.86.86 0 0 0-1-.06 1.24 1.24 0 0 1-1.4-.08.19.19 0 1 1 .23-.31.86.86 0 0 0 1 .06 1.24 1.24 0 0 1 1.41.08.86.86 0 0 0 1 .05 1.26 1.26 0 0 1 1.4.08.86.86 0 0 0 1 .06 1.24 1.24 0 0 1 1.41.08.86.86 0 0 0 1 .06 1.22 1.22 0 0 1 1.4.08.86.86 0 0 0 1 .05.21.21 0 0 1 .27.07.19.19 0 0 1-.07.26 1.24 1.24 0 0 1-.67.18Z" style="fill:#263238"/>
    <g style="opacity:.6000000000000001">
        <path d="M225.55 365h-.22a.19.19 0 0 1-.16-.22.2.2 0 0 1 .23-.16.86.86 0 0 0 .88-.4 1.22 1.22 0 0 1 1.28-.58.87.87 0 0 0 .89-.4 1.21 1.21 0 0 1 1.28-.58.86.86 0 0 0 .88-.4 1.22 1.22 0 0 1 1.29-.58.86.86 0 0 0 .88-.41 1.26 1.26 0 0 1 1.28-.58.86.86 0 0 0 .89-.4.18.18 0 0 1 .26-.06.18.18 0 0 1 .07.26 1.19 1.19 0 0 1-1.28.51.88.88 0 0 0-.89.41 1.26 1.26 0 0 1-1.28.58.84.84 0 0 0-.88.4 1.27 1.27 0 0 1-1.29.58.84.84 0 0 0-.88.4 1.22 1.22 0 0 1-1.28.58.86.86 0 0 0-.89.4 1.23 1.23 0 0 1-1.06.65ZM226.41 367.08a1.19 1.19 0 0 1-.49-.1.19.19 0 0 1 .15-.35.86.86 0 0 0 1-.2 1.23 1.23 0 0 1 1.38-.27.83.83 0 0 0 .93-.19 1.25 1.25 0 0 1 1.38-.28.88.88 0 0 0 1-.19 1.24 1.24 0 0 1 1.38-.28.86.86 0 0 0 1-.19 1.25 1.25 0 0 1 1.38-.28.84.84 0 0 0 .95-.19.18.18 0 0 1 .27 0 .19.19 0 0 1 0 .27 1.25 1.25 0 0 1-1.38.28.86.86 0 0 0-.95.19 1.25 1.25 0 0 1-1.38.28.86.86 0 0 0-1 .19 1.28 1.28 0 0 1-1.38.28.85.85 0 0 0-1 .19 1.24 1.24 0 0 1-1.38.27.86.86 0 0 0-.94.19 1.23 1.23 0 0 1-.92.38ZM236.14 370a1.19 1.19 0 0 1-.76-.26.84.84 0 0 0-1-.05 1.27 1.27 0 0 1-1.41-.08.86.86 0 0 0-1-.06 1.22 1.22 0 0 1-1.4-.08.84.84 0 0 0-1-.05 1.27 1.27 0 0 1-1.41-.08.86.86 0 0 0-1-.06 1.24 1.24 0 0 1-1.4-.08.19.19 0 1 1 .23-.31.86.86 0 0 0 1 .06 1.24 1.24 0 0 1 1.41.08.86.86 0 0 0 1 .05 1.26 1.26 0 0 1 1.4.08.86.86 0 0 0 1 .06 1.24 1.24 0 0 1 1.41.08.86.86 0 0 0 1 .06 1.22 1.22 0 0 1 1.4.08.86.86 0 0 0 1 .05.21.21 0 0 1 .27.07.19.19 0 0 1-.07.26 1.24 1.24 0 0 1-.67.18Z" style="fill:#fff"/>
    </g>
    <path d="M211.86 406.28s-5.86-7.21-12.3-3.13 4.68 25.29 29.88 22.09 25.06-23.4 20.37-26.27-14.92 5.34-14.92 5.34Z" style="fill:#37a05f"/>
    <path d="M252.16 406.85c-.65 7-6.32 16.3-22.71 18.39-9 1.15-16.28-.85-21.54-4.06-9.4-5.75-12.49-15.41-8.36-18 6.45-4.08 12.31 3.13 12.31 3.13l23-2s10.23-8.21 14.92-5.34c1.66 1.03 2.74 4.11 2.38 7.88Z" style="fill:#fff;isolation:isolate;opacity:.30000000000000004"/>
    <path d="M252.16 406.85c-.65 7-6.32 16.3-22.71 18.39-9 1.15-16.28-.85-21.54-4.06a10.11 10.11 0 0 1-3.74-9.21s3.77-9.9 10.53-5.93 20.19 8.27 20.19 8.27 2.15 0 7.52-9.63c2.11-3.78 7.29-1.13 9.75 2.17Z" style="isolation:isolate;opacity:.2"/>
    <path d="M231.17 415.58a5.39 5.39 0 0 1-.87.78.09.09 0 0 1-.11 0 .12.12 0 0 1-.05-.1c0-.16.17-1.64.67-1.91a.38.38 0 0 1 .37 0 .53.53 0 0 1 .35.46 1.16 1.16 0 0 1-.36.77Zm-.25-1c-.26.14-.46.92-.54 1.51.62-.49 1-.93 1-1.22a.38.38 0 0 0-.23-.29.19.19 0 0 0-.18 0Z" style="fill:#37a05f"/>
    <path d="M230.36 415.29a5.65 5.65 0 0 1 .13 1.16.09.09 0 0 1-.06.09.11.11 0 0 1-.11 0c-.12-.11-1.23-1.1-1.16-1.66a.38.38 0 0 1 .22-.3.53.53 0 0 1 .57 0 1.11 1.11 0 0 1 .41.71Zm-1-.4c0 .3.49.91.93 1.32 0-.79-.21-1.33-.45-1.48a.38.38 0 0 0-.37 0 .18.18 0 0 0-.11.14Z" style="fill:#37a05f"/>
    <path d="m229.61 416.27-3.15 3.7a.31.31 0 0 0 0 .44l2.78 2.67a.75.75 0 0 0 1.07-.08c1.08-1.3 1.53-2 2.9-3.62a39.5 39.5 0 0 0 3.56-4.45c.94-1.55-.62-2.44-1.15-1.87a12 12 0 0 1-5.36 2.81 1.25 1.25 0 0 0-.65.4Z" style="fill:#ebb376"/>
    <path d="M245.56 424a5.37 5.37 0 0 1-.81-.84.08.08 0 0 1 0-.1.1.1 0 0 1 .09-.06c.17 0 1.65.1 1.94.59a.38.38 0 0 1 0 .37.54.54 0 0 1-.44.37 1.2 1.2 0 0 1-.78-.33Zm1-.29c-.16-.26-1-.42-1.54-.48.52.6 1 .93 1.26.9a.38.38 0 0 0 .28-.24.19.19 0 0 0 0-.18Z" style="fill:#37a05f"/>
    <path d="M245.82 423.16a5.62 5.62 0 0 1-1.15.18.12.12 0 0 1-.1 0 .14.14 0 0 1 0-.11c.11-.14 1-1.29 1.61-1.24a.38.38 0 0 1 .31.21.53.53 0 0 1 0 .57 1.16 1.16 0 0 1-.67.39Zm.36-1c-.3 0-.89.52-1.28 1 .79-.07 1.32-.26 1.46-.5a.35.35 0 0 0 0-.37.16.16 0 0 0-.15-.1Z" style="fill:#37a05f"/>
    <path d="m244.81 422.45-3.83-3a.31.31 0 0 0-.43 0l-2.55 2.93a.77.77 0 0 0 .12 1.07c1.36 1 2 1.44 3.75 2.75a40.56 40.56 0 0 0 4.6 3.37c1.58.87 2.41-.72 1.81-1.23a12 12 0 0 1-3-5.23 1.24 1.24 0 0 0-.47-.66Z" style="fill:#ebb376"/>
    <path d="M202.1 402.08c6.28-3.24 28.08 13.54 28.08 13.54l-2.82 6s-22.58-6.16-25.26-9.69c-3.1-4.13-4.48-7.54 0-9.85Z" style="fill:#37a05f"/>
    <path d="M202.1 402.08c6.28-3.24 28.08 13.54 28.08 13.54l-2.82 6s-22.58-6.16-25.26-9.69c-3.1-4.13-4.48-7.54 0-9.85Z" style="fill:#fff;isolation:isolate;opacity:.30000000000000004"/>
    <path d="M252.16 400.35c3.93 4.81-6.34 22.81-6.34 22.81l-6.47-3.16s3.27-14.71 4.9-18.58c2.02-4.82 5.75-3.67 7.91-1.07Z" style="fill:#37a05f"/>
    <path d="M252.16 400.35c3.93 4.81-6.34 22.81-6.34 22.81l-6.47-3.16s3.27-14.71 4.9-18.58c2.02-4.82 5.75-3.67 7.91-1.07Z" style="fill:#fff;isolation:isolate;opacity:.30000000000000004"/>
    <path d="M205.48 392.86v-1.59c.08-3.72.27-6.85.43-8.94a4.55 4.55 0 0 1 .77-2.22c1.72-.93 2.94-1.5 2.94-1.5l13.54 4.5s3.65 10.55-17.68 9.75Z" style="isolation:isolate;opacity:.2"/>
    <path d="m230.85 376 4.26-3.77 2.67 4.2s-2.61 3.06-5.74 2ZM239.05 371.25l1.24 3.61-2.51 1.54-2.67-4.2 3.94-.95z" style="fill:#ebb376"/>
    <path d="M210.75 379.4c3.36 1.62 7.42 3.8 11.14 3.82 1.63-.32 3-1.71 4.3-2.8 1.68-1.47 3.33-3.17 5-4.8a1.72 1.72 0 0 1 2.76 1.93c-2 4.07-4.42 8.07-8.26 10.75-1.93 1.41-5.23 1.51-7.28 1.13a33.82 33.82 0 0 1-11-4.09 3.41 3.41 0 0 1 3.35-5.94Z" style="fill:#ffb573"/>
    <path d="M207.11 387.24a30.6 30.6 0 0 0 10.15 3l3.46-7.47s-6.79-2.53-9.51-3.72l-.14-.06c-5.27-2.22-8.97 5.5-3.96 8.25Z" style="fill:#263238"/>
    <path style="fill:#37a05f" d="M170.27 386.83h2.5v2.5h-2.5z"/>
    <path style="opacity:.2" d="M170.27 386.83h2.5v2.5h-2.5z"/>
    <path style="fill:#37a05f" d="M175.8 386.83h2.5v2.5h-2.5z"/>
    <path style="opacity:.2" d="M175.8 386.83h2.5v2.5h-2.5z"/>
    <path style="fill:#37a05f" d="M181.33 386.83h2.5v2.5h-2.5z"/>
    <path style="opacity:.2" d="M181.33 386.83h2.5v2.5h-2.5z"/>
    <path style="fill:#37a05f" d="M186.87 386.83h2.5v2.5h-2.5z"/>
    <path style="opacity:.2" d="M186.87 386.83h2.5v2.5h-2.5z"/>
    <path style="fill:#37a05f" d="M167.81 429.83v-27.29h8.5v24.1l3.58 1.41v1.78h-12.08zM183.8 429.83v-27.29h8.51v24.1l3.58 1.41v1.78H183.8z"/>
    <path style="fill:#37a05f" d="M167.81 388.64h24.51v15.75h-24.51z"/>
    <path style="fill:#fff;opacity:.2" d="M167.81 411.48h8.51v8.51h-8.51z"/>
    <path style="opacity:.2" d="M167.81 396.77h24.51v7.61h-24.51z"/>
    <path style="fill:#fff;opacity:.2" d="M183.8 407.61h8.51v3.87h-8.51zM183.8 396.77h8.51v3.6h-8.51z"/>
    <path style="opacity:.2" d="M176.31 400.37h7.49v4.01h-7.49zM183.8 411.48h8.51v4.01h-8.51zM167.81 415.96h8.51v4.01h-8.51z"/>
    <path style="fill:#fff;opacity:.2" d="M167.81 392.76h8.51v4.01h-8.51zM183.8 388.64h8.51v4.01h-8.51z"/>
    <path style="opacity:.2" d="M176.31 426.64h-8.5v3.19h12.08v-1.78l-3.58-1.41z"/>
    <path transform="rotate(25.28 160.756 425.917)" style="fill:#37a05f" d="M159.51 424.69h2.5v2.5h-2.5z"/>
    <path transform="rotate(25.28 160.756 425.917)" style="opacity:.4" d="M159.51 424.69h2.5v2.5h-2.5z"/>
    <path transform="rotate(25.28 156.712 423.967)" style="fill:#37a05f" d="M155.47 422.78h2.5v2.5h-2.5z"/>
    <path transform="rotate(25.28 156.712 423.967)" style="opacity:.4" d="M155.47 422.78h2.5v2.5h-2.5z"/>
    <path transform="rotate(25.28 152.666 422.111)" style="fill:#37a05f" d="M151.43 420.88h2.5v2.5h-2.5z"/>
    <path transform="rotate(25.28 152.666 422.111)" style="opacity:.4" d="M151.43 420.88h2.5v2.5h-2.5z"/>
    <path transform="rotate(25.28 148.633 420.206)" style="fill:#37a05f" d="M147.39 418.97h2.5v2.5h-2.5z"/>
    <path transform="rotate(25.28 148.633 420.206)" style="opacity:.4" d="M147.39 418.97h2.5v2.5h-2.5z"/>
    <path transform="rotate(25.28 153.846 424.868)" style="fill:#37a05f" d="M144.58 422.89h18.51v4.01h-18.51z"/>
    <path transform="rotate(25.28 153.846 424.868)" style="opacity:.2" d="M144.58 422.89h18.51v4.01h-18.51z"/>
    <path style="fill:#37a05f" d="M273.13 425.91h2.5v2.5h-2.5zM268.67 425.91h2.5v2.5h-2.5zM264.2 425.91h2.5v2.5h-2.5zM259.73 425.91h2.5v2.5h-2.5z"/>
    <path style="fill:#37a05f" d="M258.43 427.16h18.51v4.01h-18.51z"/>
    <path style="fill:#fff;opacity:.2" d="M258.43 427.16h18.51v4.01h-18.51z"/>
    <path style="fill:#37a05f" d="M147.68 425.4h2.5v2.5h-2.5z"/>
    <path style="opacity:.2" d="M147.68 425.4h2.5v2.5h-2.5z"/>
    <path style="fill:#37a05f" d="M143.22 425.4h2.5v2.5h-2.5z"/>
    <path style="opacity:.2" d="M143.22 425.4h2.5v2.5h-2.5z"/>
    <path style="fill:#37a05f" d="M141.9 426.65h9.6v4.01h-9.6z"/>
    <path transform="rotate(-34.98 286.925 423.856)" style="fill:#37a05f" d="M285.66 422.6h2.5v2.5h-2.5z"/>
    <path transform="rotate(-34.98 286.925 423.856)" style="opacity:.4" d="M285.66 422.6h2.5v2.5h-2.5z"/>
    <path transform="rotate(-34.98 283.258 426.415)" style="fill:#37a05f" d="M282 425.16h2.5v2.5H282z"/>
    <path transform="rotate(-34.98 283.258 426.415)" style="opacity:.4" d="M282 425.16h2.5v2.5H282z"/>
    <path transform="rotate(-34.98 286.258 426.803)" style="fill:#37a05f" d="M281.43 424.77h9.6v4.01h-9.6z"/>
    <path transform="rotate(-34.98 286.258 426.803)" style="opacity:.2" d="M281.43 424.77h9.6v4.01h-9.6z"/>
    <path style="fill:#37a05f" d="M208.89 428.54h2.5v2.5h-2.5z"/>
    <path style="opacity:.2" d="M208.89 428.54h2.5v2.5h-2.5z"/>
    <path style="fill:#37a05f" d="M204.42 428.54h2.5v2.5h-2.5z"/>
    <path style="opacity:.2" d="M204.42 428.54h2.5v2.5h-2.5z"/>
    <path style="fill:#37a05f" d="M199.96 428.54h2.5v2.5h-2.5z"/>
    <path style="opacity:.2" d="M199.96 428.54h2.5v2.5h-2.5z"/>
    <path style="fill:#37a05f" d="M198.6 429.79h14.14v4.01H198.6z"/>
    <path style="fill:#fff;opacity:.2" d="M198.6 429.79h14.14v4.01H198.6z"/>
    <path style="fill:#37a05f" d="M297.77 425.91h2.5v2.5h-2.5z"/>
    <path style="opacity:.2" d="M297.77 425.91h2.5v2.5h-2.5z"/>
    <path style="fill:#37a05f" d="M293.3 425.91h2.5v2.5h-2.5z"/>
    <path style="opacity:.2" d="M293.3 425.91h2.5v2.5h-2.5z"/>
    <path style="fill:#37a05f" d="M288.83 425.91h2.5v2.5h-2.5z"/>
    <path style="opacity:.2" d="M288.83 425.91h2.5v2.5h-2.5z"/>
    <path style="fill:#37a05f" d="M287.48 427.16h14.14v4.01h-14.14z"/>
    <path style="fill:#ebb376" d="M74.69 410.09h6.56l1.86-15.18h-6.56l-1.86 15.18z"/>
    <path style="opacity:.2" d="M76.55 394.91h6.56l-.96 7.83h-6.56l.96-7.83z"/>
    <path d="M90.49 263.09s4 46.89 4.28 66.12c.27 21.06-9.58 72-9.58 72h-12s4.79-46.92 3.2-67.78c-1.79-23.33-8.09-65.85-8.09-65.85Z" style="fill:#263238"/>
    <g style="opacity:.2">
        <path d="M90.49 263.09s4 46.89 4.28 66.12c.27 21.06-9.58 72-9.58 72h-12s4.79-46.92 3.2-67.78c-1.79-23.33-8.09-65.85-8.09-65.85Z" style="fill:#fff"/>
    </g>
    <path d="m100.2 313.8-5.79-3.45a.58.58 0 0 0-.7-.19l-5.48 2.35a1 1 0 0 0-.39 1.44c1.57 2.06 7.28 8.62 9.92 12.21 1.59 2.18 4.24 1.19 3.77.14-2.13-4.8-2.94-3.74-2.66-8.92a5.74 5.74 0 0 1 1.33-3.58ZM81.55 407.08l-6.33 2.31a.56.56 0 0 0-.58.41L73 415.54a1 1 0 0 0 .88 1.21c2.59.09 11.27-.2 15.73 0 2.69.13 3.6-2.54 2.49-2.84-5.07-1.38-4.75-.09-8.6-3.57a5.75 5.75 0 0 1-1.95-3.26Z" style="fill:#ebb376"/>
    <path style="fill:#263238" d="M86.63 401.48H72.49l.04-4.22 14.76-.86-.66 5.08z"/>
    <path style="fill:#ebb376" d="m92.31 310.99 4.1 5.13 13.01-7.98-4.1-5.13-13.01 7.98z"/>
    <path style="opacity:.2" d="m109.42 308.14-6.71 4.12-4.1-5.14 6.71-4.11 4.1 5.13z"/>
    <path d="m102.68 260.62 2.93 4.73s47.09-4.18 50.18 3.53c3.71 9.29 1.17 16.73-50.18 45.09l-6.49-10.14L129.85 281l-40.07 9.42-6.67-16.58 2.36-13.24Z" style="fill:#263238"/>
    <path d="m105.61 314-6.49-10.15L129.85 281l-21.72 5.1-15.51 3.65-2.82.67-6.67-16.58 2.36-13.24h17.21l2.93 4.73s47.09-4.18 50.18 3.53c3.7 9.32 1.19 16.75-50.2 45.14Z" style="fill:#fff;opacity:.2"/>
    <path style="fill:#263238" d="m105.76 314.69-8.04-11.62 3.5-2.37 9.09 11.65-4.55 2.34z"/>
    <path d="m108.13 286.12-15.51 3.65-.29-5s9.84-1.24 15.8 1.35Z" style="opacity:.2"/>
    <path d="M118 227.51a76.15 76.15 0 0 0-6.62 11.6 89.25 89.25 0 0 0-5.38 14.82 67.8 67.8 0 0 0-1.79 8.61l-35.92 5a138.89 138.89 0 0 1 0-17.94 142.14 142.14 0 0 1 3.54-23.25 92.07 92.07 0 0 1 3.17-10.6c29.6-12.89 43 11.76 43 11.76Z" style="fill:#37a05f"/>
    <path d="M103.6 201.69c-2 3.77-6 9.83-10.09 11.46l.62 6.09 8-.82a9.19 9.19 0 0 1 3.76-4.35Z" style="fill:#ebb376"/>
    <path d="m102.67 204.64 3.2 9.43a14.48 14.48 0 0 0-2.07 1.71c-5.56-4.19-1.59-10.88-1.13-11.14Z" style="opacity:.2"/>
    <path d="M89.54 213.26s0 8.69 6.89 11.35 10.63-5.61 10.63-5.61-7.56-8.21-17.52-5.74Z" style="fill:#ebb376"/>
    <path d="M121.85 195.15c7.26 5.1-2.68 13.91-5.14 13.72-4.61-.36-.29-17.53 5.14-13.72Z" style="fill:#263238"/>
    <path d="M105 196c-3 5.77-5.08 9-4 13.54 1.64 6.85 10 8.44 14.71 3.69 4.21-4.28 8.44-13 4.33-18.49A8.88 8.88 0 0 0 105 196Z" style="fill:#ebb376"/>
    <path d="M115.85 205a18.69 18.69 0 0 0-.17 5.18 3.05 3.05 0 0 1-2.41-.9Z" style="fill:#d58745"/>
    <path d="M117.81 203.55a.41.41 0 0 0 0 .09.31.31 0 0 0 .18.4 3.06 3.06 0 0 0 2.82-.26.31.31 0 0 0 .07-.43.32.32 0 0 0-.44-.07 2.46 2.46 0 0 1-2.23.18.31.31 0 0 0-.4.09ZM115.25 201.53a.26.26 0 0 1 0 .09.32.32 0 0 1-.44.06 3.08 3.08 0 0 1-1.24-2.55.3.3 0 0 1 .33-.28.31.31 0 0 1 .29.33 2.45 2.45 0 0 0 1 2 .31.31 0 0 1 .06.35ZM113.85 203.39a.13.13 0 0 1-.11 0 1.7 1.7 0 0 0-1.42-.45.15.15 0 0 1-.16-.14.15.15 0 0 1 .14-.15 2.2 2.2 0 0 1 1.21.22 1.82 1.82 0 0 0-1.23-.73.16.16 0 0 1-.13-.16.15.15 0 0 1 .16-.13 2 2 0 0 1 1.68 1.41.14.14 0 0 1-.07.16.08.08 0 0 1-.07-.03ZM118.64 206.57a.16.16 0 0 1-.12-.06 1.72 1.72 0 0 0-1.28-.77.15.15 0 0 1-.14-.12.15.15 0 0 1 .08-.16 2 2 0 0 1 2.17.34.14.14 0 0 1 0 .2.13.13 0 0 1-.2 0 1.87 1.87 0 0 0-1.36-.44 2.23 2.23 0 0 1 1 .77.14.14 0 0 1 0 .2.16.16 0 0 1-.15.04Z" style="fill:#263238"/>
    <path d="M108.63 212.28a11.44 11.44 0 0 1 3.92 1.32l.28.19a5 5 0 0 1 1.61-1.66l-.18-.21c-.77-.87-3.86-4.18-5.45-3.47-1.81.8-1.63 3.47-.18 3.83Z" style="fill:#fff"/>
    <path d="M108.65 209.77s.29.17.72.45l-.14.46.38-.31.94.63-.19.53.42-.37c.37.26.73.53 1.07.79l-.22.5.4-.35a7 7 0 0 1 .82.73l-.3.77.28.19a5 5 0 0 1 1.61-1.66l-.18-.21-1.15.59a8.69 8.69 0 0 0-.85-.69l.3-.67-.52.51c-.32-.23-.7-.48-1.12-.75l.18-.76-.44.62c-.31-.19-.64-.37-1-.55l.12-.66-.35.56c-.25-.12-.5-.24-.78-.35Z" style="opacity:.2"/>
    <path d="M106 201.65s-2.28 2.91-1.06 5.89c0 0 4.07-1.27 5.64-.09a10.55 10.55 0 0 1 2.34 2.36l-.29.24s-2.36-2.46-3.43-2.35-3.53 1.79-2.86 3.9 1.73 2.93 2.1 2.67a3.26 3.26 0 0 0 .72-.86l1.24.34s-.54.85-.36 1.34 2.65 0 3.7-1a3.94 3.94 0 0 0 1.18-2.35l-1.89-1.4.19-.31s2.82.67 3 1.4-.6 1.66-1.44 2.65-3.49 4.35-7.62 3.29c-3.3-.85-6.74-5.46-5.67-9.2a19.49 19.49 0 0 1 3.85-6.77Z" style="fill:#263238"/>
    <path d="M106 201.65s-2.28 2.91-1.06 5.89c0 0 4.07-1.27 5.64-.09a10.55 10.55 0 0 1 2.34 2.36l-.29.24s-2.36-2.46-3.43-2.35-3.53 1.79-2.86 3.9 1.73 2.93 2.1 2.67a3.26 3.26 0 0 0 .72-.86l1.24.34s-.54.85-.36 1.34 2.65 0 3.7-1a3.94 3.94 0 0 0 1.18-2.35l-1.89-1.4.19-.31s2.82.67 3 1.4-.6 1.66-1.44 2.65-3.49 4.35-7.62 3.29c-3.3-.85-6.74-5.46-5.67-9.2a19.49 19.49 0 0 1 3.85-6.77Z" style="fill:#fff;opacity:.4"/>
    <path d="M102.64 189.82c-1.85 4-3 13.33-.73 14.43 2.45 1.2 7.2-4.46 8.8-9.74Z" style="fill:#263238"/>
    <path d="M98.79 200.63a6.14 6.14 0 0 0 1.89 4.33c1.57 1.49 3.37.33 3.77-1.69.37-1.81 0-4.77-2-5.5a2.78 2.78 0 0 0-3.66 2.86Z" style="fill:#ebb376"/>
    <path d="M122 198.51s-3.07 1.45-4.45-1.09-5.43 0-7.49-1.15-7.8-5.56-7.8-5.56-.06-4.53 3.39-4.83 2-.34 5.18-1 9 2.25 9.21 4.88c0 0 3.25 1.33 4.43 3.82a3.51 3.51 0 0 1-2.47 4.93Z" style="fill:#263238"/>
    <path d="M120 190a4.61 4.61 0 0 1-.9-.08.12.12 0 1 1 0-.23 3.83 3.83 0 0 0 2.63-.43 1.55 1.55 0 0 0 .5-1.3.13.13 0 0 1 .12-.13.15.15 0 0 1 .13.12 1.82 1.82 0 0 1-.6 1.49 3 3 0 0 1-1.88.56ZM125.78 200.42a.12.12 0 0 1-.12-.12 3 3 0 0 0-2.69-3 .12.12 0 0 1-.11-.13.13.13 0 0 1 .14-.17 3.31 3.31 0 0 1 2.9 3.26.12.12 0 0 1-.12.13ZM104.1 191.45c-.54 0-2.6-.12-3.21-2a.13.13 0 0 1 .08-.16.12.12 0 0 1 .15.08c.64 1.93 3.08 1.8 3.1 1.8s.12 0 .13.11a.14.14 0 0 1-.11.13ZM99.85 194.9a.12.12 0 0 1-.08-.15 2.35 2.35 0 0 1 1.19-1.6 2.8 2.8 0 0 1 2.07 0 .11.11 0 0 1 .07.16.11.11 0 0 1-.15.06 2.65 2.65 0 0 0-1.89 0 2.18 2.18 0 0 0-1.06 1.44.12.12 0 0 1-.15.09Z" style="fill:#263238"/>
    <path d="m92.31 283.5 6.27 5-7.93 3.2s-4.8-4.95-2.15-7.31Z" style="fill:#ebb376"/>
    <path style="fill:#ebb376" d="m100.71 295.82-7.76.44-2.31-4.57 7.94-3.2 2.13 7.33z"/>
    <path transform="rotate(29.14 96.156 334.308)" style="fill:#37a05f" d="M94.87 333.03h2.57v2.57h-2.57z"/>
    <path transform="rotate(29.14 96.156 334.308)" style="opacity:.2" d="M94.87 333.03h2.57v2.57h-2.57z"/>
    <path transform="rotate(29.14 92.133 332.027)" style="fill:#37a05f" d="M90.85 330.79h2.57v2.57h-2.57z"/>
    <path transform="rotate(29.14 92.133 332.027)" style="opacity:.2" d="M90.85 330.79h2.57v2.57h-2.57z"/>
    <path transform="rotate(-60.86 93.138 334.994)" style="fill:#37a05f" d="M91.08 330.06h4.12v9.88h-4.12z"/>
    <path transform="rotate(-25.11 102.44 371.081)" style="fill:#37a05f" d="M100.94 369.58h2.95v2.95h-2.95z"/>
    <path transform="rotate(-25.11 97.648 373.337)" style="fill:#37a05f" d="M96.15 371.82h2.95v2.95h-2.95z"/>
    <path transform="rotate(-25.11 101.046 374.376)" style="fill:#37a05f" d="M95.35 371.95h11.36v4.74H95.35z"/>
    <path transform="rotate(-25.11 101.046 374.376)" style="fill:#fff;opacity:.2" d="M95.35 371.95h11.36v4.74H95.35z"/>
    <path d="M111.38 239.11c-2.59 5.54-3.94 14.45-5 18.54-2.66-2.7-3.66-9-4-11.4a22 22 0 0 1 1.62-12.17Z" style="opacity:.2"/>
    <path d="M116.21 233.84c-1.63 7.3-3.57 14.78-4.73 22.11a22.69 22.69 0 0 0-.09 6.69c.91 8.62 3.35 21.51 4.77 30.28l-4.65 1.23c-1.77-4.93-3.37-9.88-4.81-14.92-1.76-6.4-3.63-12.9-4.25-19.72-.22-9.56 2.12-18.87 4.36-28l9.4 2.38Z" style="fill:#e7b278"/>
    <path d="M118 227.51c2.61 4.09-2.15 18.21-2.15 18.21l-13-2.84s-.07-9 1.71-11.78 13.44-3.59 13.44-3.59Z" style="fill:#37a05f"/>
    <path d="m116.16 292.92 1.93 7.87-7-1.12s-2.72-8 2.13-8.63Z" style="fill:#ebb376"/>
    <path style="fill:#ebb376" d="m116 305.23-5.77.15.9-5.71 6.96 1.12-2.09 4.44z"/>
    <path d="M80.19 239.8c-2 3-6.36 8-11.84 9.85a142.14 142.14 0 0 1 3.54-23.25c2.93-.05 5.3.25 9.65 2.49 0 0 1.57 6.54-1.35 10.91Z" style="opacity:.2"/>
    <path d="M80 226.48c-.25 8.77-1.44 21.72-.59 30.3 1 4.55 3.5 9 5.62 13.24 2.39 4.56 4.93 9.16 7.47 13.7l-3.91 2.79a142.67 142.67 0 0 1-9.83-12.72c-3.14-4.8-6.36-9.45-7.93-15.17-1.18-5.69-1.09-11.1-1.14-16.77 0-5.37.23-10.65.63-16l9.68.63Z" style="fill:#e7b278"/>
    <path d="M75 215.75c-5 2.84-5.83 9.9-7.57 18.7l13.21 2.44s2.32-8.44 1.66-12.77-7.3-8.37-7.3-8.37Z" style="fill:#37a05f"/>
</svg>
