<svg width="150" height="111" fill="none" xmlns="http://www.w3.org/2000/svg">
    <g clip-path="url(#a)">
        <path opacity=".1" d="M74.328 106.509c33.662 0 60.95-2.51 60.95-5.607 0-3.097-27.288-5.607-60.95-5.607-33.662 0-60.951 2.51-60.951 5.607 0 3.097 27.289 5.607 60.95 5.607Z" fill="#37A05F"/>
        <path d="M136.448 54.588V54.517a1.157 1.157 0 0 0-.173-.438c-.312-.499-.746-.91-1.262-1.194-.9-.494-2.137-.705-2.497-1.647-.111-.292-.113-.61-.168-.915a2.758 2.758 0 0 0-1.826-2.077c-.428-.143-.89-.183-1.306-.36-.93-.396-1.421-1.37-1.837-2.272l-1.614-3.492c-.41.206-.939.109-1.322-.149a2.745 2.745 0 0 1-.855-1.056c-.555-1.078-.793-2.298-1.445-3.324-.652-1.025-1.954-1.835-3.105-1.39a5.295 5.295 0 0 1-.696.289c-.985.23-2.076-.896-2.92-.35a.95.95 0 0 0-.332.363.124.124 0 0 1 0-.027c-.11.222-.171.464-.18.712v.172c0 .196.012.395.015.594.003.167-.01.334-.038.5v-.014a1.71 1.71 0 0 1-.071.272c-.219.59-.828.975-1.113 1.529v-.027c-.032.06-.06.122-.083.186-.05.146-.077.298-.078.452-.024 1.04 1.079 2.02 1.207 3.136.092.791.273 1.045.945 1.492l.148.098c-.059 0-.119.008-.186.01a.459.459 0 0 0-.078.008.83.83 0 0 0-.701.123c-.515.409-1.734.094-2.275 0-.542-.095-2.396.16-2.655 1.187-.259 1.028-.704 3.15-.704 3.15s0 1.346-.165 1.597a.085.085 0 0 0 0 .054c0 .378.014 2.649-.352 3.234-.09.136-.083.437-.016.808-.385.495-.746 1.073-.682 1.453.117.775 1.691 3.215 3.946 1.909 0 0 1.283-2.347-.331-3.595l.07-.273c.488.6.849 1.031.849 1.031s.019.05.049.137h-.049c.211.573.338 1.174.379 1.783a2.188 2.188 0 0 1-.12.656h.042a1.471 1.471 0 0 1-.042.137c-.079.23-.227.43-.424.574-1.128.799-2.419 6.505-2.419 6.505s-2.558 9.225-3.069 9.75c-.423.431 2.233 1.645 4.227 1.5.278-.016.553-.069.818-.155.012.136.026.272.039.397.043.409.086.788.114.906.071.298.211 3.333.211 3.333s-.288 1.972-.218 3.343c0 .095.012.185.02.273l-.248.038c-.376.846 1.174 7.9 1.385 8.493.14.467.219.951.235 1.439 0 0-.136.501-.023.775.07.168.116.345.136.526 0 0-.093.455.048.752.14.297-.023.818-.023.818s-.047 2.055-.469 3.174a1.819 1.819 0 0 0 .293 1.81c.029.039.061.076.095.111 0 0 2.332.019 2.743 0h.053c.165-.023.587-1.872.211-2.763-.376-.89-.046-1.987-.046-1.987v-1.62s.422-.39 0-1.227c-.423-.837-.353-1.09-.353-1.09s.47-1.348-.024-1.782c-.493-.433.094-2.078.094-2.078l.167-5.481a2.17 2.17 0 0 0-.266-.069l-.029-.28c-.097-.993-.18-2.343.036-2.728.215-.384.319-3.742.353-6.075l2.149.082c.045 1.091.093 2.087.123 2.213.071.298.212 3.333.212 3.333s-.289 1.972-.219 3.343c0 .095.012.185.02.273l-.248.038c-.376.846 1.174 7.9 1.386 8.493.14.467.219.95.235 1.439 0 0-.136.501-.024.775.07.168.116.345.136.526 0 0-.092.455.048.752s-.023.818-.023.818-.047 2.055-.469 3.174a1.828 1.828 0 0 0 .398 1.918s2.332.019 2.742 0h.053c.165-.023.588-1.872.212-2.763-.377-.89-.047-1.986-.047-1.986V96.98s.423-.39 0-1.227c-.422-.837-.353-1.09-.353-1.09s.471-1.348-.023-1.782c-.494-.433.094-2.078.094-2.078l.169-5.481a2.063 2.063 0 0 0-.273-.069l-.028-.28c-.097-.993-.18-2.343.035-2.728.173-.315.273-2.344.318-4.325 0-.137 0-.273.011-.41a21.177 21.177 0 0 0 2.943-.33s-1.15-4.064-.798-4.725c.151-.285-.067-1.803-.366-3.438.417.337.935.524 1.47.532.514.988 2.078 3.263 2.959 3.613 1.034.41.258-3.218-.234-3.743a4.432 4.432 0 0 1-.584-.937l.042-.045c.014-.015.025-3.859-.211-3.79-.236.07-.517-.57-.517-.57l-.728-6.392-.305-2.675c.255.188.557.308.818.495.709.52.941 1.432 1.252 2.239.256.664.616 1.323 1.206 1.74.591.417 1.457.528 2.046.105.545-.397.706-1.113.826-1.766.99.348 2.192-.582 2.063-1.598-.031-.251-.124-.525.007-.745.262-.433 1.091-.181 1.364-.61a.457.457 0 0 0 .068-.246.166.166 0 0 0 .005-.037Zm-13.242 3.515c-.015.245.321 2.205.594 3.757-.224-.967-.673-1.999-1.556-2.706 0 0 0-.05-.011-.137h.011s-.037-.39-.043-.945c.002-.492.038-.983.11-1.47v-.012h-.018c0-.041.011-.083.018-.124a4.41 4.41 0 0 1 .331-1.192c.073-.149.157-.292.252-.428.146 1.318.326 3.01.312 3.258Zm.734 4.544c.12.67.206 1.14.206 1.14l.724 4.972v.023c-.39-2.099-.888-4.31-.888-4.31a8.562 8.562 0 0 0-.042-1.825Z" fill="url(#b)"/>
        <path d="M115.066 44.263c-.137-1.26-1.5-2.347-1.091-3.546.222-.653.917-1.052 1.152-1.701.155-.428.086-.899.087-1.354.002-.456.108-.965.487-1.217.818-.545 1.871.577 2.825.348a5.02 5.02 0 0 0 .673-.286c1.114-.444 2.374.364 3 1.384.626 1.02.86 2.236 1.397 3.308.184.414.468.775.827 1.051.371.257.878.353 1.279.149l1.561 3.477c.409.896.878 1.867 1.773 2.26.401.177.848.216 1.263.36a2.728 2.728 0 0 1 1.772 2.065c.053.306.055.622.162.913.348.938 1.544 1.148 2.415 1.636.505.284.927.693 1.228 1.188.136.236.253.545.107.777-.263.425-1.063.174-1.317.607-.128.218-.038.49 0 .741.124 1.011-1.039 1.937-1.996 1.59-.116.65-.273 1.364-.799 1.758-.566.423-1.405.311-1.976-.104-.571-.414-.918-1.07-1.166-1.731-.301-.805-.526-1.713-1.212-2.23-.248-.185-.546-.305-.788-.492-.546-.417-.819-1.106-1.014-1.773-.252-.832-.452-1.687-.818-2.472-.365-.785-.943-1.516-1.736-1.875-.743-.334-1.599-.312-2.367-.584-1.321-.466-2.299-1.577-3.613-2.1a5.838 5.838 0 0 1-1.187-.672c-.661-.435-.841-.687-.928-1.475Z" fill="#3F3D56"/>
        <g opacity=".1" fill="#434343">
            <path d="M115.188 38.748c.028-.053.053-.108.074-.165.154-.428.086-.898.087-1.354 0-.152.014-.303.043-.452-.126.269-.187.564-.179.861-.001.367.042.752-.025 1.11ZM131.999 59.343c-.566.421-1.405.31-1.976-.105-.571-.416-.919-1.069-1.16-1.733-.302-.805-.525-1.713-1.213-2.23-.246-.185-.545-.306-.786-.492-.546-.417-.819-1.106-1.015-1.766-.252-.832-.451-1.687-.818-2.472-.367-.785-.942-1.516-1.736-1.875-.742-.334-1.598-.312-2.366-.584-1.323-.466-2.3-1.577-3.613-2.1a5.92 5.92 0 0 1-1.188-.672c-.646-.446-.818-.698-.914-1.485-.136-1.18-1.336-2.21-1.149-3.323-.031.06-.058.122-.081.186-.409 1.2.955 2.286 1.091 3.545.089.787.273 1.039.914 1.485.369.268.767.494 1.188.67 1.313.524 2.29 1.637 3.613 2.102.768.273 1.624.25 2.366.584.794.358 1.364 1.09 1.736 1.875.372.784.571 1.636.818 2.472.2.66.464 1.349 1.015 1.766.246.185.545.307.786.492.682.517.911 1.425 1.213 2.23.248.661.595 1.316 1.167 1.73.571.415 1.41.526 1.976.105.361-.273.545-.689.666-1.134-.107.287-.292.54-.534.729ZM134.801 55.254a.57.57 0 0 0-.065.319c.308-.304 1.003-.126 1.246-.517a.498.498 0 0 0 .063-.32c-.317.3-1.012.12-1.244.518ZM132.798 57.585c-.026.137-.052.283-.085.424.835.26 1.799-.409 1.935-1.254-.331.65-1.149 1.085-1.85.83Z"/>
        </g>
        <path d="M116.827 44.919s.454.916-.886.935c-1.34.02.863 5.951.863 5.951l2.228 2.836 2.773-1.5.159-4.137.205-2.5s-2.591-.84-2.114-1.953c.477-1.113-3.228.368-3.228.368Z" fill="#FBBEBE"/>
        <path d="M124.874 69.104s1.636 1.61 3.545-.527l-1.465-1.555h-1.855l-.225 2.082Z" fill="#A6A6A6"/>
        <path opacity=".1" d="m125.051 67.022-.225 2.082s1.637 1.61 3.546-.527" fill="#434343"/>
        <path d="M127.804 67.305s.659 1.728 1.136 2.25c.478.522 1.228 4.136.228 3.727-.999-.41-2.908-3.454-3.023-3.977-.115-.522-.158-2-.158-2h1.817Z" fill="#FBBEBE"/>
        <path d="m113.51 76.169 8.817.34-1.023-3.728-4.441-.09-3.353 3.478Z" fill="#A6A6A6"/>
        <path opacity=".1" d="m114.736 76.169 8.818.34-1.023-3.728-4.442-.09-3.353 3.478Z" fill="#434343"/>
        <path d="M116.395 82.323c-.208.388-.128 1.733-.034 2.727.06.633.126 1.12.126 1.12s-3.296 1.022-3.795.136c-.127-.225-.19-.62-.212-1.082-.068-1.363.212-3.328.212-3.328s-.137-3.022-.205-3.318a12.344 12.344 0 0 1-.11-.903c-.06-.605-.118-1.279-.118-1.279l4.5-2.386s0 .447-.008 1.136c-.024 2.163-.097 6.7-.356 7.177Z" fill="#FBBEBE"/>
        <path opacity=".1" d="M116.487 86.17s-3.296 1.022-3.795.136c-.127-.225-.19-.62-.212-1.082.682-.103 2.757-.39 3.881-.174.06.633.126 1.12.126 1.12Z" fill="#434343"/>
        <path d="M116.6 103.351h-.052c-.397.015-2.652 0-2.652 0a1.863 1.863 0 0 1-.386-1.909c.409-1.114.454-3.16.454-3.16s.159-.522.023-.818c-.136-.296-.046-.75-.046-.75a1.929 1.929 0 0 0-.137-.522c-.113-.273.023-.773.023-.773a5.788 5.788 0 0 0-.227-1.432c-.205-.59-1.705-7.613-1.341-8.454 0 0 3.182-.546 4.387-.137l-.159 5.455s-.569 1.636-.092 2.068c.477.433.023 1.773.023 1.773s-.068.25.341 1.09c.409.842 0 1.228 0 1.228v1.613s-.317 1.091.045 1.977c.363.887-.045 2.722-.204 2.751Z" fill="#3F3D56"/>
        <path d="M122.844 82.323c-.209.388-.129 1.733-.034 2.727.06.633.125 1.12.125 1.12s-3.296 1.022-3.795.136c-.127-.225-.189-.62-.211-1.082-.068-1.363.211-3.328.211-3.328s-.136-3.022-.204-3.318c-.037-.16-.101-1.681-.152-3.046-.042-1.165-.076-2.217-.076-2.217l4.5.695s0 1.979-.056 4.012c-.049 1.971-.141 3.992-.308 4.3Z" fill="#FBBEBE"/>
        <path opacity=".1" d="M122.935 86.17s-3.296 1.022-3.795.136c-.127-.225-.189-.62-.211-1.082.682-.103 2.757-.39 3.881-.174.06.633.125 1.12.125 1.12Z" fill="#434343"/>
        <path d="M123.048 103.351h-.052c-.396.015-2.652 0-2.652 0a1.863 1.863 0 0 1-.386-1.909c.409-1.12.45-3.165.45-3.165s.16-.522.023-.818c-.136-.296-.046-.75-.046-.75a1.965 1.965 0 0 0-.136-.523c-.113-.272.023-.773.023-.773a5.788 5.788 0 0 0-.228-1.431c-.204-.591-1.704-7.614-1.34-8.455 0 0 3.181-.545 4.386-.136l-.159 5.454s-.569 1.636-.091 2.069c.477.432.023 1.772.023 1.772s-.068.25.341 1.091c.409.842 0 1.228 0 1.228v1.613s-.318 1.09.045 1.977c.362.886-.041 2.727-.201 2.756Z" fill="#3F3D56"/>
        <path opacity=".1" d="M118.6 45.99a3.205 3.205 0 1 0 0-6.41 3.205 3.205 0 0 0 0 6.41Z" fill="#434343"/>
        <path d="M118.6 45.854a3.205 3.205 0 1 0 0-6.41 3.205 3.205 0 0 0 0 6.41Z" fill="#FBBEBE"/>
        <path opacity=".1" d="m112.259 76.396 4.5-2.386s0 .447-.008 1.136c-.657.393-1.649.983-2.602 1.54-.518.305-1.024.6-1.457.846-.101.055-.207.1-.315.137-.06-.599-.118-1.273-.118-1.273ZM123.208 74.005s0 1.978-.056 4.011h-.017a7.56 7.56 0 0 1-1.007-.031c-.588-.063-1.058-.218-1.227-.526-.343-.6-1.301-1.364-2.111-1.933-.043-1.164-.077-2.217-.077-2.217l4.495.696Z" fill="#434343"/>
        <path d="M122.37 56.674a13.019 13.019 0 0 0-.065 2.677c2.067 1.705 1.681 5.295 1.681 5.295s1.592 7.274 1.251 7.932c-.341.659.772 4.705.772 4.705-.949.18-1.909.29-2.874.33a7.542 7.542 0 0 1-1.007-.032c-.588-.062-1.058-.218-1.227-.526-.636-1.113-3.386-2.772-3.386-2.772s-1.743 1.044-3.366 1.995a138.6 138.6 0 0 1-1.457.845 2.708 2.708 0 0 1-1.139.312c-1.93.144-4.5-1.064-4.091-1.493.501-.523 2.978-9.705 2.978-9.705s1.249-5.682 2.34-6.477a1.18 1.18 0 0 0 .409-.571c.374-1.038-.251-2.701-.251-2.701s-3.522-4.34-3.364-4.592c.159-.25.16-1.59.16-1.59s.432-2.113.682-3.136c.249-1.023 2.045-1.273 2.567-1.182.523.091 1.704.409 2.203 0 .499-.41 1.341.16 1.341.16l2.07.57 1.862-1.092s1.865.096 2.025.346c.159.249 2.614.728 2.614.728 1.249.84 1.204 4.84 1.204 4.84s-3 2.613-3.614 3.955a4.511 4.511 0 0 0-.318 1.18Z" fill="#A6A6A6"/>
        <path d="m125.623 50.987.682.545.705 6.341.703 6.364s.273.637.501.569c.227-.069.204 3.771.204 3.771s-2.61-1.605-3.545.527l-.728-5.14s-.933-5.25-.91-5.659c.023-.409-.477-4.84-.477-4.84l2.865-2.478ZM110.078 51.283l-.501.613s.046 2.636-.341 3.273 1.069 4.364 1.615 4.136c.545-.228 1.772-6.045 1.772-6.113 0-.068-2.545-1.91-2.545-1.91Z" fill="#A6A6A6"/>
        <path d="M110.033 55.033s-1.592 1.613-1.479 2.386c.114.773 1.637 3.202 3.819 1.897 0 0 2.023-3.806-2.34-4.283Z" fill="#A6A6A6"/>
        <path opacity=".1" d="M116.548 103.355c-.397.015-2.652 0-2.652 0a1.372 1.372 0 0 1-.093-.109c.577-.197 1.823-.491 2.745.109ZM122.999 103.355c-.397.015-2.652 0-2.652 0a1.372 1.372 0 0 1-.093-.109c.574-.197 1.821-.491 2.745.109ZM114.31 63.383c-.348 3.336-.233 9.955-.161 12.895-.518.304-1.024.598-1.457.845a2.706 2.706 0 0 1-1.139.312c-.145-.889 1.857-10.02 2.757-14.052ZM114.736 61.49l-.426 1.893c.098-.956.235-1.641.426-1.892ZM120.272 61.13s1.932 12.137-3.79 13.637c-.001-.006 3.959-.607 3.79-13.636Z" fill="#434343"/>
        <path opacity=".1" d="M123.135 77.613a7.542 7.542 0 0 1-1.007-.032l-1.544-16.594c.985.644 2.163 12.42 2.551 16.626ZM116.214 40.765a.846.846 0 0 1 .304.032c.145.072.275.17.384.289a1.374 1.374 0 0 0 1.301.252 1.72 1.72 0 0 1 .49-.136c.26 0 .485.19.62.409.135.218.205.477.321.71.116.233.301.454.556.511a.976.976 0 0 1 .355.082.503.503 0 0 1 .152.212c.213.46.382 1.002.836 1.227.167.077.349.117.533.116.188.013.375-.02.546-.099.168-.093.306-.231.401-.399.283-.47.316-1.05.249-1.594a4.376 4.376 0 0 0-.713-1.917 4.002 4.002 0 0 0-3.661-1.69c-.246.028-.49.073-.73.136-.867.232-1.718.666-2.244 1.393a4.636 4.636 0 0 1-.419.515 9.77 9.77 0 0 1 .719-.049Z" fill="#434343"/>
        <path d="M116.214 40.629a.846.846 0 0 1 .304.031c.145.072.275.17.384.29a1.375 1.375 0 0 0 1.301.252c.156-.07.321-.116.49-.137.26 0 .485.191.62.41.135.217.205.477.321.71.116.233.301.454.556.511a.979.979 0 0 1 .355.082.503.503 0 0 1 .152.211c.213.46.382 1.003.836 1.227.167.078.349.117.533.116.188.014.375-.02.546-.098.168-.094.306-.232.401-.4.283-.468.316-1.05.249-1.593a4.377 4.377 0 0 0-.713-1.918 4.002 4.002 0 0 0-3.661-1.69c-.246.028-.49.074-.73.137-.867.232-1.718.666-2.244 1.392a4.628 4.628 0 0 1-.419.516c.239-.023.479-.044.719-.05Z" fill="#3F3D56"/>
        <path opacity=".1" d="M112.737 48.26s.159 1.273-.386 1.59c-.546.319.386-1.59.386-1.59ZM124.304 58.124s1.296-1.91 1.478-1.364c.183.546-1.478 1.364-1.478 1.364ZM124.395 58.76s1.278-1.569 1.401-.955-1.401.954-1.401.954ZM120.643 56.893a2.074 2.074 0 0 1-1.285-.423h-.112c-.382.35-.885.538-1.403.528a1.99 1.99 0 0 1-1.455-.584h-.148a2.144 2.144 0 0 1-2.766-.05l-.533-.01s.625 1.664.251 2.701l9.113.163a12.95 12.95 0 0 1 .066-2.677v-.012l-.501-.01c-.36.25-.789.38-1.227.374Z" fill="#434343"/>
        <path opacity=".1" d="M120.643 57.165a2.074 2.074 0 0 1-1.285-.422h-.112c-.382.35-.885.538-1.403.527a1.99 1.99 0 0 1-1.455-.583h-.148a2.144 2.144 0 0 1-2.766-.05l-.533-.01s.625 1.663.251 2.701l9.113.162a12.95 12.95 0 0 1 .066-2.677v-.012l-.501-.01c-.36.25-.789.381-1.227.374Z" fill="#434343"/>
        <path d="M120.643 57.029a2.075 2.075 0 0 1-1.285-.423h-.112c-.382.35-.885.539-1.403.528a1.991 1.991 0 0 1-1.455-.584h-.148a2.143 2.143 0 0 1-2.766-.05l-.533-.01s.625 1.664.251 2.702l9.113.162c-.07-.892-.049-1.79.066-2.677v-.012l-.501-.01c-.36.25-.789.38-1.227.374Z" fill="#3F3D56"/>
        <path opacity=".1" d="M120.238 47.936s1.918.123 1.931.396c.012.273-1.931-.396-1.931-.396ZM115.577 46.773s-1.919.123-1.931.396c-.012.272 1.931-.396 1.931-.396ZM122.909 52.35c-.019-.015-.038-.026-.057-.038.491.442.409 1.407-.194 2.204-.602.796-1.517 1.128-2.074.77.018.015.033.032.052.047.545.417 1.5.09 2.13-.734.63-.824.691-1.831.143-2.25ZM112.37 54.414c-.486-.876-.423-1.843.127-2.21-.021.01-.043.018-.063.03-.603.335-.682 1.34-.183 2.245.499.906 1.399 1.364 2.002 1.034a.506.506 0 0 0 .057-.038c-.601.272-1.455-.186-1.94-1.061ZM113.019 47.031l-.176.273-.449-.239.236-.363c.156.074.29.187.389.329Z" fill="#434343"/>
        <path d="M110.169 57.123s.399-1.879-.136-2.476c-.536-.597-.365-3.728.454-3.66.818.068 2.045 2.544 1.84 3.068-.204.524-.977 3.204-.977 3.204l-1.181-.136Z" fill="#FBBEBE"/>
        <path opacity=".1" d="M122.999 43.566a1.042 1.042 0 0 1-.401.4c-.17.078-.358.111-.545.098a1.248 1.248 0 0 1-.533-.116c-.454-.227-.624-.77-.836-1.227a.505.505 0 0 0-.139-.216.982.982 0 0 0-.351-.086c-.255-.057-.439-.28-.556-.511-.117-.232-.187-.488-.321-.71-.133-.223-.36-.418-.62-.41-.17.023-.335.071-.49.144a1.374 1.374 0 0 1-1.3-.254 1.331 1.331 0 0 0-.385-.29.844.844 0 0 0-.304-.03c-.157 0-.312.015-.469.027-.078.102-.161.199-.25.291.239-.02.479-.04.719-.046a.846.846 0 0 1 .304.031c.145.073.275.17.385.29a1.37 1.37 0 0 0 1.3.253c.155-.072.32-.12.49-.143.26 0 .485.191.62.41.135.217.205.476.321.71.116.233.301.454.556.511.121.007.24.036.351.086a.502.502 0 0 1 .152.211c.213.46.382 1.003.836 1.228.167.077.349.117.533.115.188.014.375-.02.546-.098.168-.093.306-.232.401-.4.211-.385.306-.824.272-1.262-.01.35-.108.692-.286.994Z" fill="#434343"/>
        <path d="M110.773 58.614c.678 0 1.227-.373 1.227-.832 0-.46-.549-.832-1.227-.832s-1.227.372-1.227.832c0 .46.549.832 1.227.832Z" fill="#A6A6A6"/>
        <path d="M70.77 104.083c23.233 0 42.067-18.834 42.067-42.067S94.003 19.948 70.77 19.948 28.703 38.782 28.703 62.016c0 23.233 18.834 42.067 42.067 42.067Z" fill="#37A05F"/>
        <path d="M92.843 83.156c0 6.64-10.44.567-21.633.567-11.192 0-22.513 5.823-22.513-.818 0-3.787 3.608-9.053 8.785-12.878 3.9-2.883 8.689-4.947 13.5-4.947 4.947 0 9.793 2.235 13.659 5.303 4.879 3.868 8.202 9.066 8.202 12.773Z" fill="#444053"/>
        <path d="M84.64 70.38c-5.95-.896-16.71-1.988-27.158-.356 3.9-2.883 8.689-4.947 13.5-4.947 4.945 0 9.791 2.235 13.657 5.303Z" fill="#F6F8FB"/>
        <path opacity=".05" d="M48.697 32.32S36.025 40.422 36.13 53.094c.104 12.672 12.568-20.774 12.568-20.774Z" fill="#434343"/>
        <path d="M112.821 9.44s-11.481-.691-10.127 7.354c0 0-.273 1.421 1.02 2.067 0 0 .02-.595 1.176-.394.412.07.831.09 1.248.06a2.593 2.593 0 0 0 1.525-.63s3.227-1.332 4.483-6.608c0 0 .929-1.15.892-1.445l-1.938.826s.662 1.398.137 2.56c0 0-.063-2.508-.435-2.455-.075.012-1.007.484-1.007.484s1.139 2.436.273 4.204c0 0 .326-3-.635-4.028l-1.364.797s1.331 2.514.428 4.566c0 0 .232-3.147-.714-4.373l-1.237.964s1.25 2.48.488 4.181c0 0-.1-3.664-.755-3.94 0 0-1.082.954-1.247 1.345 0 0 .857 1.799.326 2.748 0 0-.326-2.441-.593-2.455 0 0-1.077 1.618-1.191 2.728 0 0 .048-1.65.929-2.882 0 0-1.042.179-1.649.855 0 0 .168-1.144 1.91-1.243 0 0 .89-1.228 1.129-1.301 0 0-1.739-.146-2.793.322 0 0 .927-1.079 3.11-.59l1.228-.995s-2.289-.314-3.259.033c0 0 1.116-.955 3.587-.26l1.33-.794s-1.952-.42-3.115-.273c0 0 1.228-.661 3.503.056l.955-.427s-1.431-.28-1.849-.325c-.419-.043-.441-.16-.441-.16a4.96 4.96 0 0 1 2.691.312s2.015-.757 1.981-.884ZM101.045 5.864s-5.182-.314-4.576 3.321c0 0-.122.643.46.934 0 0 .009-.272.532-.177.186.03.375.04.564.027.254-.018.496-.118.69-.285 0 0 1.457-.602 2.025-2.986 0 0 .42-.52.409-.653l-.876.374s.3.63.064 1.156c0 0-.028-1.133-.196-1.106-.034 0-.456.218-.456.218s.516 1.1.127 1.9c0 0 .148-1.356-.286-1.82l-.616.36s.6 1.137.193 2.064c0 0 .104-1.422-.323-1.976l-.56.435s.566 1.12.222 1.888c0 0-.045-1.655-.342-1.78 0 0-.489.43-.564.608 0 0 .388.818.148 1.242 0 0-.148-1.103-.273-1.107 0 0-.487.73-.537 1.227.023-.463.168-.912.418-1.302a1.46 1.46 0 0 0-.744.386s.075-.517.864-.562c0 0 .403-.554.51-.588 0 0-.785-.065-1.261.146 0 0 .419-.488 1.406-.273l.545-.448S97.58 6.95 97.14 7.1c0 0 .504-.43 1.62-.116l.6-.36s-.88-.19-1.406-.12c0 0 .555-.3 1.583.025l.43-.194s-.647-.126-.835-.146c-.188-.019-.2-.072-.2-.072.409-.068.829-.02 1.213.137 0 0 .915-.333.9-.39Z" fill="#37A05F"/>
        <path opacity=".1" d="M146.328 99.545c2.028 0 3.672-.278 3.672-.62 0-.343-1.644-.62-3.672-.62-2.028 0-3.672.277-3.672.62 0 .342 1.644.62 3.672.62ZM6.378 109.866c2.028 0 3.672-.278 3.672-.62 0-.343-1.644-.621-3.672-.621-2.028 0-3.673.278-3.673.621 0 .342 1.645.62 3.673.62ZM27.695 110.645c2.028 0 3.672-.278 3.672-.621 0-.342-1.644-.62-3.672-.62-2.028 0-3.672.278-3.672.62 0 .343 1.644.621 3.672.621Z" fill="#37A05F"/>
        <path d="M138.291 106.501c3.028 0 5.483-.415 5.483-.928 0-.512-2.455-.927-5.483-.927-3.029 0-5.483.415-5.483.927 0 .513 2.454.928 5.483.928Z" fill="#37A05F"/>
        <path d="M140.557 104.059c.25-.205.433-.48.524-.79.066-.312-.067-.689-.366-.803-.335-.128-.694.105-.965.339-.272.235-.584.502-.94.453.183-.166.32-.376.398-.61a1.44 1.44 0 0 0 .044-.728.563.563 0 0 0-.123-.272c-.187-.199-.523-.115-.747.042-.709.499-.907 1.462-.911 2.329-.071-.312-.011-.638-.012-.955-.001-.316-.09-.681-.36-.849a1.083 1.083 0 0 0-.546-.128c-.319-.013-.673.019-.891.252-.273.29-.201.776.035 1.091.236.315.593.519.922.739.264.157.49.372.66.629.02.036.036.074.049.113h1.998a5.556 5.556 0 0 0 1.231-.852ZM8.092 92.625s.748.979-.347 2.454c-1.095 1.476-1.997 2.727-1.636 3.65 0 0 1.651-2.747 3-2.787 1.348-.04.46-1.666-1.017-3.317Z" fill="#37A05F"/>
        <path opacity=".1" d="M8.092 92.625c.065.094.116.198.152.306 1.312 1.541 2.01 2.98.75 3.016-1.175.034-2.59 2.133-2.922 2.664.012.041.025.082.041.121 0 0 1.651-2.746 3-2.785 1.349-.04.457-1.671-1.021-3.322Z" fill="#434343"/>
        <path d="M9.484 93.872c0 .345-.04.625-.087.625-.048 0-.086-.273-.086-.625 0-.351.047-.182.097-.182.049 0 .076-.163.076.182Z" fill="#FFD037"/>
        <path d="M9.956 94.284c-.303.165-.566.265-.59.222-.023-.042.205-.208.508-.373.303-.165.183-.045.206 0 .023.045.184-.014-.124.151Z" fill="#FFD037"/>
        <path d="M4.134 92.625s-.748.979.345 2.454c1.094 1.476 1.998 2.727 1.637 3.65 0 0-1.653-2.747-3-2.787-1.347-.04-.461-1.666 1.018-3.317Z" fill="#37A05F"/>
        <path opacity=".1" d="M4.134 92.625a1.177 1.177 0 0 0-.152.306c-1.312 1.541-2.012 2.98-.75 3.016 1.174.034 2.59 2.133 2.92 2.664a1.262 1.262 0 0 1-.039.121s-1.653-2.746-3-2.785c-1.347-.04-.458-1.671 1.021-3.322Z" fill="#434343"/>
        <path d="M2.742 93.872c0 .345.038.625.086.625.048 0 .086-.273.086-.625 0-.351-.048-.182-.095-.182-.048 0-.077-.163-.077.182Z" fill="#FFD037"/>
        <path d="M2.264 94.284c.302.165.567.265.59.222.023-.042-.204-.208-.507-.373-.303-.165-.184-.045-.206 0-.022.045-.18-.014.123.151Z" fill="#FFD037"/>
        <path d="M2.98 98.604s2.095-.064 2.728-.514 3.222-.986 3.38-.273c.156.714 3.146 3.587.782 3.606-2.365.019-5.494-.37-6.124-.753-.63-.383-.765-2.066-.765-2.066Z" fill="#A8A8A8"/>
        <path opacity=".2" d="M9.91 101.179c-2.365.019-5.495-.37-6.125-.753-.48-.292-.67-1.34-.735-1.825h-.07s.137 1.69.763 2.073 3.76.772 6.124.753c.682 0 .918-.25.905-.608-.095.219-.354.356-.863.36Z" fill="#434343"/>
        <path d="M55.814 56.5c.8-.045 4.568-.329 6.961-1.694a2.713 2.713 0 0 1 1.264-.372c.761-.022 1.637.296 1.076 2.074-.908 2.909-6.181 6.181-9.454 6-3.147-.175-6.88-1.443-9.346-5.902a2.727 2.727 0 0 1-.337-1.403c.029-.9.356-2.028 2.046-.77 2.282 1.697 6.613 2.02 7.482 2.067.102.005.205.005.308 0ZM86.086 56.5c.8-.045 4.568-.329 6.961-1.694a2.712 2.712 0 0 1 1.264-.372c.761-.022 1.637.296 1.076 2.074-.908 2.909-6.18 6.181-9.454 6-3.147-.175-6.88-1.443-9.346-5.902a2.728 2.728 0 0 1-.337-1.403c.03-.9.356-2.028 2.046-.77 2.282 1.697 6.613 2.02 7.482 2.067.103.005.206.005.308 0Z" fill="#444053"/>
    </g>
    <defs>
        <linearGradient id="b" x1="121.653" y1="103.36" x2="121.653" y2="35.992" gradientUnits="userSpaceOnUse">
            <stop stop-color="gray" stop-opacity=".25"/>
            <stop offset=".54" stop-color="gray" stop-opacity=".12"/>
            <stop offset="1" stop-color="gray" stop-opacity=".1"/>
        </linearGradient>
        <clipPath id="a">
            <path fill="#fff" d="M0 0h150v110.645H0z"/>
        </clipPath>
    </defs>
</svg>
