<svg width="32768" height="3875" viewBox="0 0 32768 3875" fill="none" xmlns="http://www.w3.org/2000/svg">
<path d="M2537.83 809.842C2591.24 694.764 2554.21 558.079 2460.18 472.908C1407.03 -481.183 -139.594 178.309 118.888 1379.45C118.888 1379.45 219.68 1860.16 1005.35 2074.66C1638.25 2247.47 2031.32 2416.92 2079.2 2727.57C2104.41 2891.23 2020.59 3052.92 1880.33 3140.95C1697.6 3255.65 1476.34 3250.6 1243.31 3216.7C1147.33 3202.74 1047.34 3237.75 991.187 3316.82C900.075 3445.11 935.201 3633.19 1087.48 3736.49C1128.66 3764.43 1176.49 3781.64 1225.45 3790.6C2130.02 3956.02 2740.69 3452.97 2725.53 2827.33C2717.83 2509.62 2537.5 2221.41 2266.6 2055.23C2100.27 1953.2 1854.1 1822.61 1524.82 1699.92C845.112 1446.65 534.983 1126.17 790.839 816.039C1028.73 527.693 1688.84 438.183 2110.68 873.606C2230.26 997.029 2438.95 983.733 2524.83 834.864C2529.53 826.72 2533.87 818.364 2537.83 809.842Z" fill="white"/>
<path d="M6538.84 1456.99V3405.62C6538.84 3588.54 6390.7 3736.67 6207.79 3736.67C6025.29 3736.67 5877.15 3588.54 5877.15 3405.62V2249.2H4321.37V3405.62C4321.37 3588.54 4173.23 3736.67 3990.32 3736.67C3807.81 3736.67 3659.67 3588.54 3659.67 3405.62V433.567C3659.67 250.653 3807.81 102.931 3990.32 102.931C4081.57 102.931 4164.63 139.758 4224.38 199.495C4284.53 259.654 4321.37 342.31 4321.37 433.567V1674.27H5877.15V1456.99C5877.15 1274.48 6025.29 1126.35 6207.79 1126.35C6299.45 1126.35 6382.11 1163.18 6441.86 1223.34C6501.6 1283.07 6538.84 1365.73 6538.84 1456.99Z" fill="white"/>
<path d="M12725.8 97.5602H11578.3C11407 97.5602 11268.2 236.415 11268.2 407.691C11268.2 578.978 11407 717.833 11578.3 717.833H12395V3405.66C12395 3588.36 12543.1 3736.47 12725.8 3736.47C12908.5 3736.47 13056.6 3588.36 13056.6 3405.66V428.375C13056.6 245.672 12908.5 97.5602 12725.8 97.5602Z" fill="white"/>
<path d="M31850.1 1741.79C31742.1 1849.83 31592.7 1916.52 31427.8 1916.52H30590.6V721.645H31427.8C31757.6 721.645 32025.3 989.263 32025.3 1319.09C32025.3 1483.99 31958.2 1633.76 31850.1 1741.79ZM31419.2 97.601H30271.4C30088.9 97.601 29940.8 245.735 29940.8 428.237V3405.62C29940.8 3588.54 30088.9 3736.67 30271.4 3736.67C30454.3 3736.67 30602.5 3588.54 30602.5 3405.62V2423.53L31429.5 2433.76C31713.9 3185.88 32380.5 2782.81 32083.4 2258.21C33106.8 1544.96 32606.8 61.185 31419.2 97.601Z" fill="white"/>
<path d="M17553.5 779.857C17463.3 935.824 17264.8 989.63 17107.6 901.455C16929.2 801.364 16613.1 637.064 16310.6 633.659C16131.4 633.659 15951.7 668.44 15779.9 739.647C15301.9 937.704 14993 1375.14 14953.3 1910.39C14933.2 2251.66 15073.2 2584.34 15346.9 2847.06C15646.7 3152.1 16096.2 3204.44 16368.2 3228.85C16532.5 3243.58 16659.3 3379.5 16659.3 3544.49V3555.56C16659.3 3745.45 16493.6 3893.12 16305.1 3870.08C15939.6 3825.45 15324.2 3726.9 14893.1 3319.27C14484.3 2926.44 14267.9 2397.75 14299.8 1869.05C14299.8 1867.42 14300.2 1866.19 14300.2 1864.55C14357.9 1076.43 14817.4 429.472 15529.4 134.84C15778.7 31.7223 16037 14.8551 16300.1 14.8551C16669 14.8551 17102.1 140.837 17436.7 332.274C17593.1 421.784 17643.8 623.868 17553.5 779.857Z" fill="white"/>
<path d="M22035.4 1927.57C22035.4 3002.96 21163.8 3874.16 20088.8 3874.16C19013.8 3874.16 18142.2 3002.96 18142.2 1927.57C18142.2 1334.09 18407.9 802.905 18826.6 445.922C18986.8 309.37 19230.8 346.031 19342.8 524.194C19344.1 526.286 19345.5 528.378 19346.8 530.47C19437.7 674.998 19409.3 864.588 19279.2 975.216C18981.3 1228.6 18803.2 1618.74 18843.5 2047.71C18900.4 2653.53 19399.2 3136.76 20006.4 3175.86C20733.5 3222.66 21339.7 2644.76 21339.7 1927.57C21339.7 1535.49 21158.3 1185.09 20875.1 955.667C20756.1 859.315 20714.1 696.639 20771.6 554.769C20858.9 339.333 21130.1 266.835 21311 412.855C21752.7 769.471 22035.4 1315.32 22035.4 1927.57Z" fill="white"/>
<path d="M25865.1 1702.51C25865.1 2513.14 25606.9 2981.27 25395.3 3229.25C25269.7 3376.16 25045.1 3383.12 24911.3 3243.57L24910 3241.94C24795.9 3122.45 24791.4 2938.71 24894.1 2809.41C25325 2265.57 25325.4 1616.98 25024.2 1182C24831.1 902.925 24505.3 744.967 24165.7 744.967H23394.3V3405.62C23394.3 3595.99 23233.9 3748.68 23041.2 3735.93C22865.4 3724.28 22732.7 3570.3 22732.7 3394.12V418.014C22732.7 408.523 22733.1 399.133 22733.8 389.842C22747.9 223.261 22895.9 99.6494 23063.1 99.6494H24058C24341.4 99.6494 24623.9 149.639 24885.7 258.264C25335.7 444.961 25865.1 846.516 25865.1 1702.51Z" fill="white"/>
<path d="M28987.3 3622.91C28930.9 3679.79 28853.1 3714.57 28766.8 3714.57H26927.4C26766.2 3714.57 26622.5 3595.91 26608.2 3435.5C26607.4 3425.68 26607 3415.85 26607 3405.63V510.909C26607 283.79 26791.1 99.6519 27017.8 99.6519H27673.4C27842.8 99.6519 27990.1 230.596 27994.6 400.003C27999.1 574.739 27859.2 717.143 27685.7 717.143H27682.8L27268.3 712.637V1632.54H28606C28764.3 1632.54 28892.8 1761.02 28892.8 1919.79C28892.8 1998.78 28860.5 2070.8 28808.9 2122.77C28757 2174.74 28685.3 2206.65 28606 2206.65H27268.3V3090.53H28757C28910.8 3090.53 29049.1 3197.33 29074.5 3348.74C29092.5 3455.55 29055.3 3554.98 28987.3 3622.91Z" fill="white"/>
<path d="M651.279 3024.46C651.279 3204.3 505.482 3350.1 325.639 3350.1C145.797 3350.1 0 3204.3 0 3024.46C0 2844.62 145.797 2698.82 325.639 2698.82C505.482 2698.82 651.279 2844.62 651.279 3024.46Z" fill="white"/>
<path d="M6538.84 416.42C6538.84 596.264 6393.04 742.061 6213.2 742.061C6033.35 742.061 5887.56 596.264 5887.56 416.42C5887.56 236.577 6033.35 90.7795 6213.2 90.7795C6393.04 90.7795 6538.84 236.577 6538.84 416.42Z" fill="white"/>
<path d="M14157.6 430.312C14157.6 610.155 14011.8 755.953 13831.9 755.953C13652.1 755.953 13506.3 610.155 13506.3 430.312C13506.3 250.469 13652.1 104.671 13831.9 104.671C14011.8 104.671 14157.6 250.469 14157.6 430.312Z" fill="white"/>
<path d="M17679.5 3155.29C17679.5 3335.14 17533.7 3480.94 17353.9 3480.94C17174.1 3480.94 17028.3 3335.14 17028.3 3155.29C17028.3 2975.45 17174.1 2829.65 17353.9 2829.65C17533.7 2829.65 17679.5 2975.45 17679.5 3155.29Z" fill="white"/>
<path d="M20402.9 325.64C20402.9 505.484 20257.1 651.281 20077.3 651.281C19897.4 651.281 19751.6 505.484 19751.6 325.64C19751.6 145.797 19897.4 -0.000508224 20077.3 -0.000508224C20257.1 -0.000508224 20402.9 145.797 20402.9 325.64Z" fill="white"/>
<path d="M24435.9 3401.46C24435.9 3581.31 24290.1 3727.11 24110.3 3727.11C23930.4 3727.11 23784.6 3581.31 23784.6 3401.46C23784.6 3221.62 23930.4 3075.82 24110.3 3075.82C24290.1 3075.82 24435.9 3221.62 24435.9 3401.46Z" fill="white"/>
<path d="M29072.4 417.39C29072.4 597.233 28926.6 743.031 28746.8 743.031C28566.9 743.031 28421.1 597.233 28421.1 417.39C28421.1 237.547 28566.9 91.7492 28746.8 91.7492C28926.6 91.7492 29072.4 237.547 29072.4 417.39Z" fill="white"/>
<path d="M32767.5 3418.91C32767.5 3598.75 32621.7 3744.55 32441.9 3744.55C32262 3744.55 32116.2 3598.75 32116.2 3418.91C32116.2 3239.07 32262 3093.27 32441.9 3093.27C32621.7 3093.27 32767.5 3239.07 32767.5 3418.91Z" fill="white"/>
<path d="M9160.56 97.5622L7827.26 648.719L7280.38 1958.37L7842.49 3322.96L9160.56 3834.69L10478.6 3303.58L11033 1966.12L10459.2 648.052L9160.56 97.5622Z" stroke="white" stroke-width="9.808" stroke-miterlimit="10" stroke-linecap="round" stroke-linejoin="round"/>
<path d="M9546.93 1190.79C9546.93 1406.32 9372.21 1581.04 9156.69 1581.04C8941.15 1581.04 8766.44 1406.32 8766.44 1190.79C8766.44 975.264 8941.15 800.538 9156.69 800.538C9372.21 800.538 9546.93 975.264 9546.93 1190.79Z" fill="white"/>
<path d="M8890.49 2524.93C8890.49 2686.07 8759.85 2816.71 8598.7 2816.71C8437.56 2816.71 8306.93 2686.07 8306.93 2524.93C8306.93 2363.79 8437.56 2233.14 8598.7 2233.14C8759.85 2233.14 8890.49 2363.79 8890.49 2524.93Z" fill="white"/>
<path d="M9889.37 2524.93C9889.37 2611.96 9818.82 2682.51 9731.79 2682.51C9644.75 2682.51 9574.2 2611.96 9574.2 2524.93C9574.2 2437.9 9644.75 2367.35 9731.79 2367.35C9818.82 2367.35 9889.37 2437.9 9889.37 2524.93Z" fill="white"/>
<path d="M8253.7 1468.95C8253.7 1555.98 8183.15 1626.53 8096.12 1626.53C8009.08 1626.53 7938.53 1555.98 7938.53 1468.95C7938.53 1381.92 8009.08 1311.37 8096.12 1311.37C8183.15 1311.37 8253.7 1381.92 8253.7 1468.95Z" fill="white"/>
<path d="M10311.9 1709.63C10311.9 1831.84 10212.9 1930.91 10090.7 1930.91C9968.45 1930.91 9869.38 1831.84 9869.38 1709.63C9869.38 1587.42 9968.45 1488.36 10090.7 1488.36C10212.9 1488.36 10311.9 1587.42 10311.9 1709.63Z" fill="white"/>
<path d="M9160.56 97.5604V800.534" stroke="white" stroke-width="9.808" stroke-miterlimit="10" stroke-linecap="round" stroke-linejoin="round"/>
<path d="M9513.65 1033.04L10459.2 648.056L10171.3 1503.75" stroke="white" stroke-width="9.808" stroke-miterlimit="10" stroke-linecap="round" stroke-linejoin="round"/>
<path d="M9493.14 1388.01L9899.08 1599.06" stroke="white" stroke-width="9.808" stroke-miterlimit="10" stroke-linecap="round" stroke-linejoin="round"/>
<path d="M10307.9 1751.37L11033 1966.13L9881.17 2474.96" stroke="white" stroke-width="9.808" stroke-miterlimit="10" stroke-linecap="round" stroke-linejoin="round"/>
<path d="M10013.7 1917.02L9785.67 2377" stroke="white" stroke-width="9.808" stroke-miterlimit="10" stroke-linecap="round" stroke-linejoin="round"/>
<path d="M9302.08 1552.97L9659.44 2385.01" stroke="white" stroke-width="9.808" stroke-miterlimit="10" stroke-linecap="round" stroke-linejoin="round"/>
<path d="M8793.26 1048.59L7827.26 648.718L8039.1 1322.17" stroke="white" stroke-width="9.808" stroke-miterlimit="10" stroke-linecap="round" stroke-linejoin="round"/>
<path d="M7962.96 1552.97L7280.38 1958.37L8325.32 2423.27" stroke="white" stroke-width="9.808" stroke-miterlimit="10" stroke-linecap="round" stroke-linejoin="round"/>
<path d="M8248.98 1431.29L8780.35 1293.89" stroke="white" stroke-width="9.808" stroke-miterlimit="10" stroke-linecap="round" stroke-linejoin="round"/>
<path d="M8166.9 1609.6C8163.88 1611.05 8455.17 2270.98 8455.17 2270.98" stroke="white" stroke-width="9.808" stroke-miterlimit="10" stroke-linecap="round" stroke-linejoin="round"/>
<path d="M7842.49 3322.96L8389.5 2728.17" stroke="white" stroke-width="9.808" stroke-miterlimit="10" stroke-linecap="round" stroke-linejoin="round"/>
<path d="M8708.8 2795.15L9160.56 3834.68L9669.74 2669.8" stroke="white" stroke-width="9.808" stroke-miterlimit="10" stroke-linecap="round" stroke-linejoin="round"/>
<path d="M10478.6 3303.58L9833.21 2645.47" stroke="white" stroke-width="9.808" stroke-miterlimit="10" stroke-linecap="round" stroke-linejoin="round"/>
<path d="M8890.49 2524.93H9574.82" stroke="white" stroke-width="9.808" stroke-miterlimit="10" stroke-linecap="round" stroke-linejoin="round"/>
<path d="M8708.8 2254.74L9011.36 1552.97" stroke="white" stroke-width="9.808" stroke-miterlimit="10" stroke-linecap="round" stroke-linejoin="round"/>
</svg>
