<svg width="20" height="18" viewBox="0 0 20 18" fill="none" xmlns="http://www.w3.org/2000/svg">
<path d="M10 12.6665C11.5188 12.6665 12.75 11.4353 12.75 9.9165C12.75 8.39772 11.5188 7.1665 10 7.1665C8.48122 7.1665 7.25 8.39772 7.25 9.9165C7.25 11.4353 8.48122 12.6665 10 12.6665Z" stroke="white" stroke-width="1.5"/>
<path d="M7.96333 17.25H12.037C14.8979 17.25 16.3288 17.25 17.3564 16.5763C17.7998 16.2857 18.1817 15.9107 18.4802 15.4726C19.1668 14.4643 19.1668 13.059 19.1668 10.2504C19.1668 7.44079 19.1668 6.03646 18.4802 5.02813C18.1817 4.59006 17.7998 4.21504 17.3564 3.92446C16.6964 3.49088 15.8696 3.33596 14.6037 3.28096C13.9996 3.28096 13.4798 2.83179 13.3616 2.24971C13.2712 1.82334 13.0364 1.44124 12.6969 1.168C12.3573 0.894753 11.9338 0.747117 11.498 0.750043H8.50233C7.59666 0.750043 6.81658 1.37796 6.63875 2.24971C6.5205 2.83179 6.00075 3.28096 5.39666 3.28096C4.13166 3.33596 3.30483 3.49179 2.64391 3.92446C2.20081 4.2151 1.81926 4.59012 1.521 5.02813C0.833496 6.03646 0.833496 7.44079 0.833496 10.2504C0.833496 13.059 0.833496 14.4634 1.52008 15.4726C1.81708 15.909 2.19841 16.2839 2.64391 16.5763C3.6715 17.25 5.10241 17.25 7.96333 17.25Z" stroke="white" stroke-width="1.5"/>
<path d="M16.4167 7.1665H15.5" stroke="white" stroke-width="1.5" stroke-linecap="round"/>
</svg>
