<svg width="19" height="19" viewBox="0 0 19 19" fill="none" xmlns="http://www.w3.org/2000/svg">
<path d="M17.2633 7.9495H16.6257V7.91665H9.50065V11.0833H13.9748C13.322 12.9267 11.5681 14.25 9.50065 14.25C6.87746 14.25 4.75065 12.1232 4.75065 9.49998C4.75065 6.87679 6.87746 4.74998 9.50065 4.74998C10.7115 4.74998 11.8131 5.20677 12.6519 5.95292L14.8911 3.71369C13.4772 2.39596 11.5859 1.58331 9.50065 1.58331C5.12867 1.58331 1.58398 5.128 1.58398 9.49998C1.58398 13.872 5.12867 17.4166 9.50065 17.4166C13.8726 17.4166 17.4173 13.872 17.4173 9.49998C17.4173 8.96917 17.3627 8.45102 17.2633 7.9495Z" fill="#FFC107"/>
<path d="M2.49609 5.81517L5.09711 7.72269C5.80091 5.98023 7.50536 4.74998 9.49997 4.74998C10.7108 4.74998 11.8124 5.20677 12.6512 5.95292L14.8904 3.71369C13.4765 2.39596 11.5852 1.58331 9.49997 1.58331C6.45918 1.58331 3.82214 3.30004 2.49609 5.81517Z" fill="#FF3D00"/>
<path d="M9.50094 17.4167C11.5458 17.4167 13.4039 16.6341 14.8087 15.3615L12.3585 13.2882C11.5369 13.9129 10.5331 14.2508 9.50094 14.25C7.44181 14.25 5.69342 12.937 5.03475 11.1047L2.45312 13.0938C3.76333 15.6576 6.42413 17.4167 9.50094 17.4167Z" fill="#4CAF50"/>
<path d="M17.2627 7.94954H16.625V7.91669H9.5V11.0834H13.9741C13.6619 11.9607 13.0995 12.7273 12.3563 13.2885L12.3575 13.2877L14.8077 15.3611C14.6344 15.5187 17.4167 13.4584 17.4167 9.50002C17.4167 8.96921 17.362 8.45106 17.2627 7.94954Z" fill="#1976D2"/>
</svg>
