<svg width="19" height="19" viewBox="0 0 19 19" fill="none" xmlns="http://www.w3.org/2000/svg">
<path d="M15.2234 12.0807L13.2126 11.8511C12.9761 11.8234 12.7365 11.8496 12.5116 11.9277C12.2867 12.0059 12.0825 12.134 11.9143 12.3024L10.4576 13.7591C8.21019 12.6161 6.38349 10.7894 5.2405 8.54198L6.70508 7.0774C7.0455 6.73698 7.21175 6.26198 7.15633 5.77906L6.92675 3.78406C6.88187 3.39787 6.69653 3.04167 6.40602 2.78328C6.11551 2.52488 5.74013 2.38235 5.35133 2.38281H3.98175C3.08717 2.38281 2.343 3.12698 2.39842 4.02156C2.818 10.7824 8.22508 16.1816 14.978 16.6011C15.8726 16.6566 16.6167 15.9124 16.6167 15.0178V13.6482C16.6247 12.8486 16.023 12.1757 15.2234 12.0807Z" fill="#36B37E"/>
</svg>
