<svg width="22" height="22" fill="none" xmlns="http://www.w3.org/2000/svg">
    <path d="M7.333 20.46c-.256 0-.522-.064-.76-.192a1.596 1.596 0 0 1-.844-1.412v-1.302c-2.768-.284-4.583-2.319-4.583-5.234v-5.5c0-3.153 2.118-5.27 5.27-5.27h9.168c3.153 0 5.27 2.117 5.27 5.27v5.5c0 3.153-2.117 5.27-5.27 5.27h-3.456l-3.905 2.604a1.628 1.628 0 0 1-.89.266ZM6.417 2.915c-2.365 0-3.896 1.531-3.896 3.896v5.5c0 2.365 1.53 3.896 3.896 3.896.376 0 .687.311.687.687v1.953c0 .119.074.174.12.201a.223.223 0 0 0 .238-.009l4.079-2.713a.707.707 0 0 1 .385-.12h3.667c2.365 0 3.895-1.53 3.895-3.895v-5.5c0-2.365-1.53-3.896-3.895-3.896H6.417Z" fill="#434343"/>
    <path d="M11 11.1a.692.692 0 0 1-.688-.687v-.192c0-1.064.78-1.586 1.073-1.788.339-.23.449-.385.449-.623A.837.837 0 0 0 11 6.976a.837.837 0 0 0-.835.834.692.692 0 0 1-.687.687.692.692 0 0 1-.687-.687 2.21 2.21 0 0 1 4.418 0c0 1.045-.77 1.567-1.054 1.76-.358.238-.468.394-.468.65v.193a.687.687 0 0 1-.687.688ZM11 13.383a.687.687 0 1 1-.002-1.373.687.687 0 0 1 .002 1.373Z" fill="#434343"/>
</svg>
