<svg width="22" height="22" fill="none" xmlns="http://www.w3.org/2000/svg">
    <path d="M11 20.854c-5.436 0-9.854-4.418-9.854-9.854 0-5.436 4.418-9.854 9.854-9.854 5.436 0 9.854 4.418 9.854 9.854 0 5.436-4.418 9.854-9.854 9.854Zm0-18.333c-4.675 0-8.479 3.804-8.479 8.48 0 4.674 3.804 8.478 8.48 8.478 4.674 0 8.478-3.804 8.478-8.479 0-4.675-3.804-8.479-8.479-8.479Z" fill="#434343"/>
    <path d="M11 12.604a.692.692 0 0 1-.688-.687V7.334c0-.376.312-.688.688-.688.376 0 .688.312.688.688v4.583a.692.692 0 0 1-.688.687ZM11 15.583a.913.913 0 0 1-.348-.073c-.11-.046-.211-.11-.303-.193a.947.947 0 0 1-.192-.302.913.913 0 0 1-.073-.349c0-.119.027-.238.073-.348.046-.11.11-.21.192-.302a1.06 1.06 0 0 1 .303-.193.918.918 0 0 1 .697 0c.11.046.21.11.302.193.082.091.147.192.193.302.045.11.073.23.073.348 0 .12-.028.239-.073.349a.946.946 0 0 1-.193.302 1.058 1.058 0 0 1-.303.193.913.913 0 0 1-.348.073Z" fill="#434343"/>
</svg>
