<svg width="22" height="22" fill="none" xmlns="http://www.w3.org/2000/svg">
    <path d="M15.986 14.089a.68.68 0 0 1-.485-.202.692.692 0 0 1 0-.971l1.86-1.861-1.86-1.861a.692.692 0 0 1 0-.972.692.692 0 0 1 .971 0l2.347 2.347a.692.692 0 0 1 0 .972l-2.347 2.346a.68.68 0 0 1-.486.202Z" fill="#434343"/>
    <path d="M18.27 11.743H8.946a.693.693 0 0 1-.688-.688c0-.376.312-.687.688-.687h9.322c.376 0 .688.311.688.687a.693.693 0 0 1-.688.688Z" fill="#434343"/>
    <path d="M10.78 19.02c-4.72 0-8.02-3.3-8.02-8.02 0-4.721 3.3-8.021 8.02-8.021.376 0 .688.312.688.688a.693.693 0 0 1-.688.687c-3.914 0-6.646 2.732-6.646 6.646 0 3.914 2.732 6.646 6.646 6.646.376 0 .688.311.688.687a.693.693 0 0 1-.688.688Z" fill="#434343"/>
</svg>
