<svg width="22" height="22" fill="none" xmlns="http://www.w3.org/2000/svg">
    <path d="M11 14.438A3.439 3.439 0 0 1 7.562 11 3.439 3.439 0 0 1 11 7.562 3.439 3.439 0 0 1 14.438 11 3.439 3.439 0 0 1 11 14.438Zm0-5.5A2.066 2.066 0 0 0 8.937 11c0 1.137.926 2.063 2.063 2.063A2.066 2.066 0 0 0 13.063 11 2.066 2.066 0 0 0 11 8.937Z" fill="#434343"/>
    <path d="M13.943 20.34a2.49 2.49 0 0 1-.578-.073 2.25 2.25 0 0 1-1.347-1.017l-.11-.183c-.541-.935-1.284-.935-1.824 0l-.101.174c-.303.513-.78.88-1.348 1.026a2.146 2.146 0 0 1-1.677-.229l-1.577-.907a2.429 2.429 0 0 1-.898-3.319c.266-.467.339-.889.183-1.155-.156-.265-.55-.421-1.09-.421a2.433 2.433 0 0 1-2.43-2.43v-1.613c0-1.338 1.09-2.429 2.43-2.429.54 0 .934-.156 1.09-.422.156-.265.092-.687-.183-1.155a2.44 2.44 0 0 1-.239-1.842 2.365 2.365 0 0 1 1.137-1.476l1.586-.907c1.036-.615 2.401-.257 3.025.797l.11.183c.54.935 1.283.935 1.824 0l.1-.174c.624-1.063 1.99-1.42 3.035-.797l1.577.907a2.429 2.429 0 0 1 .898 3.319c-.266.467-.34.889-.183 1.155.155.265.55.421 1.09.421 1.339 0 2.43 1.091 2.43 2.43v1.613c0 1.338-1.091 2.429-2.43 2.429-.54 0-.934.156-1.09.422-.156.265-.092.687.183 1.155.32.559.412 1.219.238 1.842a2.365 2.365 0 0 1-1.136 1.476l-1.586.907a2.28 2.28 0 0 1-1.11.294ZM11 16.95c.816 0 1.577.512 2.1 1.42l.1.174c.11.193.293.33.514.385.22.055.44.028.623-.082l1.586-.917a1.06 1.06 0 0 0 .394-1.44c-.523-.898-.587-1.823-.183-2.53.403-.705 1.237-1.108 2.282-1.108.587 0 1.054-.468 1.054-1.055v-1.613c0-.577-.467-1.054-1.054-1.054-1.045 0-1.88-.403-2.282-1.11-.404-.705-.34-1.63.183-2.53.137-.238.174-.522.1-.797a1.072 1.072 0 0 0-.485-.641l-1.586-.908a.843.843 0 0 0-1.155.303l-.1.174c-.523.907-1.284 1.42-2.1 1.42-.816 0-1.577-.513-2.1-1.42l-.1-.184a.842.842 0 0 0-1.137-.293l-1.585.917A1.06 1.06 0 0 0 5.674 5.5c.523.898.587 1.824.184 2.53-.404.706-1.238 1.11-2.283 1.11-.587 0-1.054.467-1.054 1.053v1.614c0 .577.468 1.054 1.054 1.054 1.045 0 1.88.403 2.283 1.109s.339 1.632-.184 2.53a1.048 1.048 0 0 0-.1.797c.073.275.247.495.485.642l1.586.908a.81.81 0 0 0 .633.091.87.87 0 0 0 .522-.394l.101-.174c.523-.898 1.283-1.42 2.1-1.42Z" fill="#434343"/>
</svg>
